<?xml version="1.0" encoding="utf-8"?>
<svg xmlns="http://www.w3.org/2000/svg" xmlns:xlink="http://www.w3.org/1999/xlink" width="672" height="480" viewBox="0 0 2688 1920">
<defs>
  <clipPath id="clip670">
    <rect x="0" y="0" width="2688" height="1920"/>
  </clipPath>
</defs>
<path clip-path="url(#clip670)" d="M0 1920 L2688 1920 L2688 0 L0 0  Z" fill="#ffffff" fill-rule="evenodd" fill-opacity="1"/>
<defs>
  <clipPath id="clip671">
    <rect x="537" y="0" width="1883" height="1883"/>
  </clipPath>
</defs>
<path clip-path="url(#clip670)" d="M227.911 1734.12 L2640.76 1734.12 L2640.76 127.792 L227.911 127.792  Z" fill="#ffffff" fill-rule="evenodd" fill-opacity="1"/>
<defs>
  <clipPath id="clip672">
    <rect x="227" y="127" width="2414" height="1607"/>
  </clipPath>
</defs>
<polyline clip-path="url(#clip672)" style="stroke:#000000; stroke-linecap:round; stroke-linejoin:round; stroke-width:2; stroke-opacity:0.1; fill:none" points="779.906,1734.12 779.906,127.792 "/>
<polyline clip-path="url(#clip672)" style="stroke:#000000; stroke-linecap:round; stroke-linejoin:round; stroke-width:2; stroke-opacity:0.1; fill:none" points="1348.97,1734.12 1348.97,127.792 "/>
<polyline clip-path="url(#clip672)" style="stroke:#000000; stroke-linecap:round; stroke-linejoin:round; stroke-width:2; stroke-opacity:0.1; fill:none" points="1918.04,1734.12 1918.04,127.792 "/>
<polyline clip-path="url(#clip672)" style="stroke:#000000; stroke-linecap:round; stroke-linejoin:round; stroke-width:2; stroke-opacity:0.1; fill:none" points="2487.11,1734.12 2487.11,127.792 "/>
<polyline clip-path="url(#clip672)" style="stroke:#000000; stroke-linecap:round; stroke-linejoin:round; stroke-width:2; stroke-opacity:0.1; fill:none" points="227.911,1249.7 2640.76,1249.7 "/>
<polyline clip-path="url(#clip672)" style="stroke:#000000; stroke-linecap:round; stroke-linejoin:round; stroke-width:2; stroke-opacity:0.1; fill:none" points="227.911,401.136 2640.76,401.136 "/>
<polyline clip-path="url(#clip670)" style="stroke:#000000; stroke-linecap:round; stroke-linejoin:round; stroke-width:4; stroke-opacity:1; fill:none" points="227.911,1734.12 2640.76,1734.12 "/>
<polyline clip-path="url(#clip670)" style="stroke:#000000; stroke-linecap:round; stroke-linejoin:round; stroke-width:4; stroke-opacity:1; fill:none" points="779.906,1734.12 779.906,1715.22 "/>
<polyline clip-path="url(#clip670)" style="stroke:#000000; stroke-linecap:round; stroke-linejoin:round; stroke-width:4; stroke-opacity:1; fill:none" points="1348.97,1734.12 1348.97,1715.22 "/>
<polyline clip-path="url(#clip670)" style="stroke:#000000; stroke-linecap:round; stroke-linejoin:round; stroke-width:4; stroke-opacity:1; fill:none" points="1918.04,1734.12 1918.04,1715.22 "/>
<polyline clip-path="url(#clip670)" style="stroke:#000000; stroke-linecap:round; stroke-linejoin:round; stroke-width:4; stroke-opacity:1; fill:none" points="2487.11,1734.12 2487.11,1715.22 "/>
<path clip-path="url(#clip670)" d="M757.383 1767.34 Q753.772 1767.34 751.944 1770.9 Q750.138 1774.45 750.138 1781.58 Q750.138 1788.68 751.944 1792.25 Q753.772 1795.79 757.383 1795.79 Q761.018 1795.79 762.823 1792.25 Q764.652 1788.68 764.652 1781.58 Q764.652 1774.45 762.823 1770.9 Q761.018 1767.34 757.383 1767.34 M757.383 1763.64 Q763.194 1763.64 766.249 1768.24 Q769.328 1772.83 769.328 1781.58 Q769.328 1790.3 766.249 1794.91 Q763.194 1799.49 757.383 1799.49 Q751.573 1799.49 748.495 1794.91 Q745.439 1790.3 745.439 1781.58 Q745.439 1772.83 748.495 1768.24 Q751.573 1763.64 757.383 1763.64 Z" fill="#000000" fill-rule="nonzero" fill-opacity="1" /><path clip-path="url(#clip670)" d="M777.545 1792.94 L782.43 1792.94 L782.43 1798.82 L777.545 1798.82 L777.545 1792.94 Z" fill="#000000" fill-rule="nonzero" fill-opacity="1" /><path clip-path="url(#clip670)" d="M792.754 1798.1 L792.754 1793.84 Q794.513 1794.68 796.318 1795.12 Q798.124 1795.56 799.86 1795.56 Q804.49 1795.56 806.92 1792.46 Q809.374 1789.33 809.721 1782.99 Q808.379 1784.98 806.318 1786.04 Q804.258 1787.11 801.758 1787.11 Q796.573 1787.11 793.541 1783.98 Q790.531 1780.83 790.531 1775.4 Q790.531 1770.07 793.68 1766.85 Q796.828 1763.64 802.059 1763.64 Q808.054 1763.64 811.203 1768.24 Q814.374 1772.83 814.374 1781.58 Q814.374 1789.75 810.485 1794.63 Q806.619 1799.49 800.068 1799.49 Q798.309 1799.49 796.504 1799.15 Q794.698 1798.8 792.754 1798.1 M802.059 1783.45 Q805.207 1783.45 807.036 1781.3 Q808.888 1779.15 808.888 1775.4 Q808.888 1771.67 807.036 1769.52 Q805.207 1767.34 802.059 1767.34 Q798.911 1767.34 797.059 1769.52 Q795.23 1771.67 795.23 1775.4 Q795.23 1779.15 797.059 1781.3 Q798.911 1783.45 802.059 1783.45 Z" fill="#000000" fill-rule="nonzero" fill-opacity="1" /><path clip-path="url(#clip670)" d="M1316.13 1794.89 L1323.77 1794.89 L1323.77 1768.52 L1315.46 1770.19 L1315.46 1765.93 L1323.72 1764.26 L1328.39 1764.26 L1328.39 1794.89 L1336.03 1794.89 L1336.03 1798.82 L1316.13 1798.82 L1316.13 1794.89 Z" fill="#000000" fill-rule="nonzero" fill-opacity="1" /><path clip-path="url(#clip670)" d="M1345.48 1792.94 L1350.36 1792.94 L1350.36 1798.82 L1345.48 1798.82 L1345.48 1792.94 Z" fill="#000000" fill-rule="nonzero" fill-opacity="1" /><path clip-path="url(#clip670)" d="M1370.55 1767.34 Q1366.94 1767.34 1365.11 1770.9 Q1363.3 1774.45 1363.3 1781.58 Q1363.3 1788.68 1365.11 1792.25 Q1366.94 1795.79 1370.55 1795.79 Q1374.18 1795.79 1375.99 1792.25 Q1377.82 1788.68 1377.82 1781.58 Q1377.82 1774.45 1375.99 1770.9 Q1374.18 1767.34 1370.55 1767.34 M1370.55 1763.64 Q1376.36 1763.64 1379.41 1768.24 Q1382.49 1772.83 1382.49 1781.58 Q1382.49 1790.3 1379.41 1794.91 Q1376.36 1799.49 1370.55 1799.49 Q1364.74 1799.49 1361.66 1794.91 Q1358.6 1790.3 1358.6 1781.58 Q1358.6 1772.83 1361.66 1768.24 Q1364.74 1763.64 1370.55 1763.64 Z" fill="#000000" fill-rule="nonzero" fill-opacity="1" /><path clip-path="url(#clip670)" d="M1885.81 1794.89 L1893.45 1794.89 L1893.45 1768.52 L1885.14 1770.19 L1885.14 1765.93 L1893.4 1764.26 L1898.08 1764.26 L1898.08 1794.89 L1905.71 1794.89 L1905.71 1798.82 L1885.81 1798.82 L1885.81 1794.89 Z" fill="#000000" fill-rule="nonzero" fill-opacity="1" /><path clip-path="url(#clip670)" d="M1915.16 1792.94 L1920.04 1792.94 L1920.04 1798.82 L1915.16 1798.82 L1915.16 1792.94 Z" fill="#000000" fill-rule="nonzero" fill-opacity="1" /><path clip-path="url(#clip670)" d="M1931.04 1794.89 L1938.68 1794.89 L1938.68 1768.52 L1930.37 1770.19 L1930.37 1765.93 L1938.63 1764.26 L1943.31 1764.26 L1943.31 1794.89 L1950.95 1794.89 L1950.95 1798.82 L1931.04 1798.82 L1931.04 1794.89 Z" fill="#000000" fill-rule="nonzero" fill-opacity="1" /><path clip-path="url(#clip670)" d="M2455.06 1794.89 L2462.7 1794.89 L2462.7 1768.52 L2454.39 1770.19 L2454.39 1765.93 L2462.65 1764.26 L2467.33 1764.26 L2467.33 1794.89 L2474.97 1794.89 L2474.97 1798.82 L2455.06 1798.82 L2455.06 1794.89 Z" fill="#000000" fill-rule="nonzero" fill-opacity="1" /><path clip-path="url(#clip670)" d="M2484.41 1792.94 L2489.3 1792.94 L2489.3 1798.82 L2484.41 1798.82 L2484.41 1792.94 Z" fill="#000000" fill-rule="nonzero" fill-opacity="1" /><path clip-path="url(#clip670)" d="M2503.51 1794.89 L2519.83 1794.89 L2519.83 1798.82 L2497.88 1798.82 L2497.88 1794.89 Q2500.55 1792.13 2505.13 1787.5 Q2509.73 1782.85 2510.92 1781.51 Q2513.16 1778.98 2514.04 1777.25 Q2514.94 1775.49 2514.94 1773.8 Q2514.94 1771.04 2513 1769.31 Q2511.08 1767.57 2507.98 1767.57 Q2505.78 1767.57 2503.32 1768.34 Q2500.89 1769.1 2498.11 1770.65 L2498.11 1765.93 Q2500.94 1764.79 2503.39 1764.21 Q2505.85 1763.64 2507.88 1763.64 Q2513.25 1763.64 2516.45 1766.32 Q2519.64 1769.01 2519.64 1773.5 Q2519.64 1775.63 2518.83 1777.55 Q2518.05 1779.45 2515.94 1782.04 Q2515.36 1782.71 2512.26 1785.93 Q2509.16 1789.12 2503.51 1794.89 Z" fill="#000000" fill-rule="nonzero" fill-opacity="1" /><path clip-path="url(#clip670)" d="M943.999 1841.06 L943.999 1878.02 L951.765 1878.02 Q961.6 1878.02 966.152 1873.56 Q970.735 1869.11 970.735 1859.49 Q970.735 1849.94 966.152 1845.52 Q961.6 1841.06 951.765 1841.06 L943.999 1841.06 M937.57 1835.78 L950.779 1835.78 Q964.592 1835.78 971.053 1841.54 Q977.515 1847.27 977.515 1859.49 Q977.515 1871.78 971.022 1877.54 Q964.529 1883.3 950.779 1883.3 L937.57 1883.3 L937.57 1835.78 Z" fill="#000000" fill-rule="nonzero" fill-opacity="1" /><path clip-path="url(#clip670)" d="M987.509 1847.65 L993.365 1847.65 L993.365 1883.3 L987.509 1883.3 L987.509 1847.65 M987.509 1833.78 L993.365 1833.78 L993.365 1841.19 L987.509 1841.19 L987.509 1833.78 Z" fill="#000000" fill-rule="nonzero" fill-opacity="1" /><path clip-path="url(#clip670)" d="M1028.34 1848.7 L1028.34 1854.24 Q1025.86 1852.97 1023.19 1852.33 Q1020.51 1851.7 1017.65 1851.7 Q1013.29 1851.7 1011.09 1853.03 Q1008.93 1854.37 1008.93 1857.04 Q1008.93 1859.08 1010.49 1860.26 Q1012.05 1861.4 1016.76 1862.45 L1018.76 1862.9 Q1025 1864.24 1027.61 1866.69 Q1030.25 1869.11 1030.25 1873.47 Q1030.25 1878.43 1026.31 1881.33 Q1022.39 1884.22 1015.52 1884.22 Q1012.65 1884.22 1009.53 1883.65 Q1006.45 1883.11 1003.01 1882 L1003.01 1875.95 Q1006.26 1877.64 1009.41 1878.49 Q1012.56 1879.32 1015.65 1879.32 Q1019.78 1879.32 1022.01 1877.92 Q1024.24 1876.49 1024.24 1873.91 Q1024.24 1871.52 1022.62 1870.25 Q1021.02 1868.98 1015.58 1867.8 L1013.54 1867.32 Q1008.1 1866.18 1005.68 1863.82 Q1003.26 1861.43 1003.26 1857.3 Q1003.26 1852.27 1006.83 1849.53 Q1010.39 1846.79 1016.95 1846.79 Q1020.2 1846.79 1023.06 1847.27 Q1025.93 1847.75 1028.34 1848.7 Z" fill="#000000" fill-rule="nonzero" fill-opacity="1" /><path clip-path="url(#clip670)" d="M1045.37 1837.53 L1045.37 1847.65 L1057.44 1847.65 L1057.44 1852.2 L1045.37 1852.2 L1045.37 1871.56 Q1045.37 1875.92 1046.55 1877.16 Q1047.76 1878.4 1051.42 1878.4 L1057.44 1878.4 L1057.44 1883.3 L1051.42 1883.3 Q1044.64 1883.3 1042.06 1880.79 Q1039.48 1878.24 1039.48 1871.56 L1039.48 1852.2 L1035.19 1852.2 L1035.19 1847.65 L1039.48 1847.65 L1039.48 1837.53 L1045.37 1837.53 Z" fill="#000000" fill-rule="nonzero" fill-opacity="1" /><path clip-path="url(#clip670)" d="M1081.34 1865.38 Q1074.24 1865.38 1071.5 1867 Q1068.77 1868.63 1068.77 1872.54 Q1068.77 1875.66 1070.8 1877.51 Q1072.87 1879.32 1076.41 1879.32 Q1081.28 1879.32 1084.2 1875.88 Q1087.16 1872.42 1087.16 1866.69 L1087.16 1865.38 L1081.34 1865.38 M1093.02 1862.96 L1093.02 1883.3 L1087.16 1883.3 L1087.16 1877.89 Q1085.16 1881.14 1082.17 1882.7 Q1079.17 1884.22 1074.85 1884.22 Q1069.37 1884.22 1066.13 1881.17 Q1062.91 1878.08 1062.91 1872.92 Q1062.91 1866.91 1066.92 1863.85 Q1070.96 1860.8 1078.95 1860.8 L1087.16 1860.8 L1087.16 1860.23 Q1087.16 1856.18 1084.49 1853.99 Q1081.85 1851.76 1077.04 1851.76 Q1073.99 1851.76 1071.09 1852.49 Q1068.19 1853.22 1065.52 1854.69 L1065.52 1849.28 Q1068.74 1848.03 1071.76 1847.43 Q1074.78 1846.79 1077.65 1846.79 Q1085.38 1846.79 1089.2 1850.8 Q1093.02 1854.81 1093.02 1862.96 Z" fill="#000000" fill-rule="nonzero" fill-opacity="1" /><path clip-path="url(#clip670)" d="M1134.72 1861.78 L1134.72 1883.3 L1128.86 1883.3 L1128.86 1861.98 Q1128.86 1856.92 1126.89 1854.4 Q1124.91 1851.89 1120.97 1851.89 Q1116.22 1851.89 1113.49 1854.91 Q1110.75 1857.93 1110.75 1863.15 L1110.75 1883.3 L1104.86 1883.3 L1104.86 1847.65 L1110.75 1847.65 L1110.75 1853.19 Q1112.85 1849.98 1115.68 1848.39 Q1118.55 1846.79 1122.27 1846.79 Q1128.41 1846.79 1131.56 1850.61 Q1134.72 1854.4 1134.72 1861.78 Z" fill="#000000" fill-rule="nonzero" fill-opacity="1" /><path clip-path="url(#clip670)" d="M1172.05 1849.02 L1172.05 1854.5 Q1169.57 1853.13 1167.05 1852.46 Q1164.57 1851.76 1162.02 1851.76 Q1156.33 1851.76 1153.18 1855.39 Q1150.03 1858.98 1150.03 1865.51 Q1150.03 1872.03 1153.18 1875.66 Q1156.33 1879.26 1162.02 1879.26 Q1164.57 1879.26 1167.05 1878.59 Q1169.57 1877.89 1172.05 1876.52 L1172.05 1881.93 Q1169.6 1883.08 1166.96 1883.65 Q1164.35 1884.22 1161.39 1884.22 Q1153.34 1884.22 1148.59 1879.16 Q1143.85 1874.1 1143.85 1865.51 Q1143.85 1856.79 1148.62 1851.79 Q1153.43 1846.79 1161.77 1846.79 Q1164.48 1846.79 1167.05 1847.37 Q1169.63 1847.91 1172.05 1849.02 Z" fill="#000000" fill-rule="nonzero" fill-opacity="1" /><path clip-path="url(#clip670)" d="M1212.73 1864.01 L1212.73 1866.88 L1185.8 1866.88 Q1186.18 1872.92 1189.43 1876.11 Q1192.71 1879.26 1198.53 1879.26 Q1201.91 1879.26 1205.06 1878.43 Q1208.24 1877.6 1211.36 1875.95 L1211.36 1881.49 Q1208.21 1882.82 1204.9 1883.52 Q1201.59 1884.22 1198.18 1884.22 Q1189.65 1884.22 1184.65 1879.26 Q1179.69 1874.29 1179.69 1865.83 Q1179.69 1857.07 1184.4 1851.95 Q1189.14 1846.79 1197.16 1846.79 Q1204.36 1846.79 1208.53 1851.44 Q1212.73 1856.06 1212.73 1864.01 M1206.87 1862.29 Q1206.81 1857.49 1204.17 1854.62 Q1201.56 1851.76 1197.23 1851.76 Q1192.33 1851.76 1189.37 1854.53 Q1186.44 1857.3 1185.99 1862.33 L1206.87 1862.29 Z" fill="#000000" fill-rule="nonzero" fill-opacity="1" /><path clip-path="url(#clip670)" d="M1261.11 1833.78 L1261.11 1838.65 L1255.51 1838.65 Q1252.35 1838.65 1251.11 1839.92 Q1249.9 1841.19 1249.9 1844.5 L1249.9 1847.65 L1259.55 1847.65 L1259.55 1852.2 L1249.9 1852.2 L1249.9 1883.3 L1244.01 1883.3 L1244.01 1852.2 L1238.41 1852.2 L1238.41 1847.65 L1244.01 1847.65 L1244.01 1845.17 Q1244.01 1839.22 1246.78 1836.51 Q1249.55 1833.78 1255.57 1833.78 L1261.11 1833.78 Z" fill="#000000" fill-rule="nonzero" fill-opacity="1" /><path clip-path="url(#clip670)" d="M1286.67 1853.13 Q1285.68 1852.55 1284.5 1852.3 Q1283.35 1852.01 1281.95 1852.01 Q1276.99 1852.01 1274.32 1855.26 Q1271.67 1858.47 1271.67 1864.52 L1271.67 1883.3 L1265.79 1883.3 L1265.79 1847.65 L1271.67 1847.65 L1271.67 1853.19 Q1273.52 1849.94 1276.48 1848.39 Q1279.44 1846.79 1283.67 1846.79 Q1284.28 1846.79 1285.01 1846.89 Q1285.74 1846.95 1286.63 1847.11 L1286.67 1853.13 Z" fill="#000000" fill-rule="nonzero" fill-opacity="1" /><path clip-path="url(#clip670)" d="M1305.19 1851.76 Q1300.48 1851.76 1297.74 1855.45 Q1295 1859.11 1295 1865.51 Q1295 1871.91 1297.71 1875.6 Q1300.45 1879.26 1305.19 1879.26 Q1309.87 1879.26 1312.61 1875.57 Q1315.34 1871.87 1315.34 1865.51 Q1315.34 1859.17 1312.61 1855.48 Q1309.87 1851.76 1305.19 1851.76 M1305.19 1846.79 Q1312.83 1846.79 1317.19 1851.76 Q1321.55 1856.72 1321.55 1865.51 Q1321.55 1874.26 1317.19 1879.26 Q1312.83 1884.22 1305.19 1884.22 Q1297.52 1884.22 1293.16 1879.26 Q1288.83 1874.26 1288.83 1865.51 Q1288.83 1856.72 1293.16 1851.76 Q1297.52 1846.79 1305.19 1846.79 Z" fill="#000000" fill-rule="nonzero" fill-opacity="1" /><path clip-path="url(#clip670)" d="M1359.01 1854.5 Q1361.21 1850.55 1364.26 1848.67 Q1367.32 1846.79 1371.46 1846.79 Q1377.03 1846.79 1380.05 1850.71 Q1383.07 1854.59 1383.07 1861.78 L1383.07 1883.3 L1377.19 1883.3 L1377.19 1861.98 Q1377.19 1856.85 1375.37 1854.37 Q1373.56 1851.89 1369.83 1851.89 Q1365.28 1851.89 1362.64 1854.91 Q1360 1857.93 1360 1863.15 L1360 1883.3 L1354.11 1883.3 L1354.11 1861.98 Q1354.11 1856.82 1352.3 1854.37 Q1350.48 1851.89 1346.69 1851.89 Q1342.21 1851.89 1339.56 1854.94 Q1336.92 1857.97 1336.92 1863.15 L1336.92 1883.3 L1331.03 1883.3 L1331.03 1847.65 L1336.92 1847.65 L1336.92 1853.19 Q1338.93 1849.91 1341.73 1848.35 Q1344.53 1846.79 1348.38 1846.79 Q1352.26 1846.79 1354.97 1848.77 Q1357.71 1850.74 1359.01 1854.5 Z" fill="#000000" fill-rule="nonzero" fill-opacity="1" /><path clip-path="url(#clip670)" d="M1421.14 1877.95 L1421.14 1896.86 L1415.25 1896.86 L1415.25 1847.65 L1421.14 1847.65 L1421.14 1853.06 Q1422.99 1849.88 1425.79 1848.35 Q1428.62 1846.79 1432.54 1846.79 Q1439.03 1846.79 1443.07 1851.95 Q1447.14 1857.11 1447.14 1865.51 Q1447.14 1873.91 1443.07 1879.07 Q1439.03 1884.22 1432.54 1884.22 Q1428.62 1884.22 1425.79 1882.7 Q1422.99 1881.14 1421.14 1877.95 M1441.07 1865.51 Q1441.07 1859.05 1438.39 1855.39 Q1435.75 1851.7 1431.1 1851.7 Q1426.46 1851.7 1423.78 1855.39 Q1421.14 1859.05 1421.14 1865.51 Q1421.14 1871.97 1423.78 1875.66 Q1426.46 1879.32 1431.1 1879.32 Q1435.75 1879.32 1438.39 1875.66 Q1441.07 1871.97 1441.07 1865.51 Z" fill="#000000" fill-rule="nonzero" fill-opacity="1" /><path clip-path="url(#clip670)" d="M1470.67 1851.76 Q1465.96 1851.76 1463.22 1855.45 Q1460.48 1859.11 1460.48 1865.51 Q1460.48 1871.91 1463.19 1875.6 Q1465.92 1879.26 1470.67 1879.26 Q1475.34 1879.26 1478.08 1875.57 Q1480.82 1871.87 1480.82 1865.51 Q1480.82 1859.17 1478.08 1855.48 Q1475.34 1851.76 1470.67 1851.76 M1470.67 1846.79 Q1478.3 1846.79 1482.67 1851.76 Q1487.03 1856.72 1487.03 1865.51 Q1487.03 1874.26 1482.67 1879.26 Q1478.3 1884.22 1470.67 1884.22 Q1463 1884.22 1458.63 1879.26 Q1454.31 1874.26 1454.31 1865.51 Q1454.31 1856.72 1458.63 1851.76 Q1463 1846.79 1470.67 1846.79 Z" fill="#000000" fill-rule="nonzero" fill-opacity="1" /><path clip-path="url(#clip670)" d="M1496.73 1847.65 L1502.59 1847.65 L1502.59 1883.3 L1496.73 1883.3 L1496.73 1847.65 M1496.73 1833.78 L1502.59 1833.78 L1502.59 1841.19 L1496.73 1841.19 L1496.73 1833.78 Z" fill="#000000" fill-rule="nonzero" fill-opacity="1" /><path clip-path="url(#clip670)" d="M1544.48 1861.78 L1544.48 1883.3 L1538.62 1883.3 L1538.62 1861.98 Q1538.62 1856.92 1536.65 1854.4 Q1534.67 1851.89 1530.73 1851.89 Q1525.98 1851.89 1523.25 1854.91 Q1520.51 1857.93 1520.51 1863.15 L1520.51 1883.3 L1514.62 1883.3 L1514.62 1847.65 L1520.51 1847.65 L1520.51 1853.19 Q1522.61 1849.98 1525.44 1848.39 Q1528.31 1846.79 1532.03 1846.79 Q1538.17 1846.79 1541.33 1850.61 Q1544.48 1854.4 1544.48 1861.78 Z" fill="#000000" fill-rule="nonzero" fill-opacity="1" /><path clip-path="url(#clip670)" d="M1561.95 1837.53 L1561.95 1847.65 L1574.01 1847.65 L1574.01 1852.2 L1561.95 1852.2 L1561.95 1871.56 Q1561.95 1875.92 1563.13 1877.16 Q1564.34 1878.4 1568 1878.4 L1574.01 1878.4 L1574.01 1883.3 L1568 1883.3 Q1561.22 1883.3 1558.64 1880.79 Q1556.06 1878.24 1556.06 1871.56 L1556.06 1852.2 L1551.77 1852.2 L1551.77 1847.65 L1556.06 1847.65 L1556.06 1837.53 L1561.95 1837.53 Z" fill="#000000" fill-rule="nonzero" fill-opacity="1" /><path clip-path="url(#clip670)" d="M1628.09 1849.02 L1628.09 1854.5 Q1625.61 1853.13 1623.09 1852.46 Q1620.61 1851.76 1618.06 1851.76 Q1612.37 1851.76 1609.22 1855.39 Q1606.06 1858.98 1606.06 1865.51 Q1606.06 1872.03 1609.22 1875.66 Q1612.37 1879.26 1618.06 1879.26 Q1620.61 1879.26 1623.09 1878.59 Q1625.61 1877.89 1628.09 1876.52 L1628.09 1881.93 Q1625.64 1883.08 1623 1883.65 Q1620.39 1884.22 1617.43 1884.22 Q1609.37 1884.22 1604.63 1879.16 Q1599.89 1874.1 1599.89 1865.51 Q1599.89 1856.79 1604.66 1851.79 Q1609.47 1846.79 1617.81 1846.79 Q1620.51 1846.79 1623.09 1847.37 Q1625.67 1847.91 1628.09 1849.02 Z" fill="#000000" fill-rule="nonzero" fill-opacity="1" /><path clip-path="url(#clip670)" d="M1667.91 1861.78 L1667.91 1883.3 L1662.05 1883.3 L1662.05 1861.98 Q1662.05 1856.92 1660.08 1854.4 Q1658.1 1851.89 1654.16 1851.89 Q1649.41 1851.89 1646.68 1854.91 Q1643.94 1857.93 1643.94 1863.15 L1643.94 1883.3 L1638.05 1883.3 L1638.05 1833.78 L1643.94 1833.78 L1643.94 1853.19 Q1646.04 1849.98 1648.87 1848.39 Q1651.74 1846.79 1655.46 1846.79 Q1661.61 1846.79 1664.76 1850.61 Q1667.91 1854.4 1667.91 1861.78 Z" fill="#000000" fill-rule="nonzero" fill-opacity="1" /><path clip-path="url(#clip670)" d="M1695.79 1865.38 Q1688.69 1865.38 1685.95 1867 Q1683.22 1868.63 1683.22 1872.54 Q1683.22 1875.66 1685.25 1877.51 Q1687.32 1879.32 1690.86 1879.32 Q1695.73 1879.32 1698.65 1875.88 Q1701.61 1872.42 1701.61 1866.69 L1701.61 1865.38 L1695.79 1865.38 M1707.47 1862.96 L1707.47 1883.3 L1701.61 1883.3 L1701.61 1877.89 Q1699.61 1881.14 1696.62 1882.7 Q1693.62 1884.22 1689.3 1884.22 Q1683.82 1884.22 1680.58 1881.17 Q1677.36 1878.08 1677.36 1872.92 Q1677.36 1866.91 1681.37 1863.85 Q1685.41 1860.8 1693.4 1860.8 L1701.61 1860.8 L1701.61 1860.23 Q1701.61 1856.18 1698.94 1853.99 Q1696.3 1851.76 1691.49 1851.76 Q1688.44 1851.76 1685.54 1852.49 Q1682.64 1853.22 1679.97 1854.69 L1679.97 1849.28 Q1683.19 1848.03 1686.21 1847.43 Q1689.23 1846.79 1692.1 1846.79 Q1699.83 1846.79 1703.65 1850.8 Q1707.47 1854.81 1707.47 1862.96 Z" fill="#000000" fill-rule="nonzero" fill-opacity="1" /><path clip-path="url(#clip670)" d="M1740.19 1853.13 Q1739.2 1852.55 1738.03 1852.3 Q1736.88 1852.01 1735.48 1852.01 Q1730.51 1852.01 1727.84 1855.26 Q1725.2 1858.47 1725.2 1864.52 L1725.2 1883.3 L1719.31 1883.3 L1719.31 1847.65 L1725.2 1847.65 L1725.2 1853.19 Q1727.04 1849.94 1730 1848.39 Q1732.96 1846.79 1737.2 1846.79 Q1737.8 1846.79 1738.53 1846.89 Q1739.27 1846.95 1740.16 1847.11 L1740.19 1853.13 Z" fill="#000000" fill-rule="nonzero" fill-opacity="1" /><path clip-path="url(#clip670)" d="M1768.64 1865.06 Q1768.64 1858.7 1766 1855.2 Q1763.39 1851.7 1758.65 1851.7 Q1753.94 1851.7 1751.3 1855.2 Q1748.69 1858.7 1748.69 1865.06 Q1748.69 1871.4 1751.3 1874.9 Q1753.94 1878.4 1758.65 1878.4 Q1763.39 1878.4 1766 1874.9 Q1768.64 1871.4 1768.64 1865.06 M1774.5 1878.88 Q1774.5 1887.98 1770.46 1892.4 Q1766.42 1896.86 1758.08 1896.86 Q1754.99 1896.86 1752.25 1896.38 Q1749.52 1895.94 1746.94 1894.98 L1746.94 1889.28 Q1749.52 1890.69 1752.03 1891.35 Q1754.54 1892.02 1757.15 1892.02 Q1762.92 1892.02 1765.78 1889 Q1768.64 1886.01 1768.64 1879.93 L1768.64 1877.03 Q1766.83 1880.18 1764 1881.74 Q1761.16 1883.3 1757.22 1883.3 Q1750.66 1883.3 1746.65 1878.3 Q1742.64 1873.31 1742.64 1865.06 Q1742.64 1856.79 1746.65 1851.79 Q1750.66 1846.79 1757.22 1846.79 Q1761.16 1846.79 1764 1848.35 Q1766.83 1849.91 1768.64 1853.06 L1768.64 1847.65 L1774.5 1847.65 L1774.5 1878.88 Z" fill="#000000" fill-rule="nonzero" fill-opacity="1" /><path clip-path="url(#clip670)" d="M1817.06 1864.01 L1817.06 1866.88 L1790.13 1866.88 Q1790.51 1872.92 1793.76 1876.11 Q1797.04 1879.26 1802.86 1879.26 Q1806.23 1879.26 1809.39 1878.43 Q1812.57 1877.6 1815.69 1875.95 L1815.69 1881.49 Q1812.54 1882.82 1809.23 1883.52 Q1805.92 1884.22 1802.51 1884.22 Q1793.98 1884.22 1788.98 1879.26 Q1784.02 1874.29 1784.02 1865.83 Q1784.02 1857.07 1788.73 1851.95 Q1793.47 1846.79 1801.49 1846.79 Q1808.68 1846.79 1812.85 1851.44 Q1817.06 1856.06 1817.06 1864.01 M1811.2 1862.29 Q1811.14 1857.49 1808.49 1854.62 Q1805.88 1851.76 1801.56 1851.76 Q1796.65 1851.76 1793.69 1854.53 Q1790.77 1857.3 1790.32 1862.33 L1811.2 1862.29 Z" fill="#000000" fill-rule="nonzero" fill-opacity="1" /><path clip-path="url(#clip670)" d="M1861.46 1833.84 Q1857.19 1841.16 1855.12 1848.32 Q1853.05 1855.48 1853.05 1862.84 Q1853.05 1870.19 1855.12 1877.41 Q1857.22 1884.61 1861.46 1891.89 L1856.36 1891.89 Q1851.59 1884.41 1849.2 1877.19 Q1846.85 1869.96 1846.85 1862.84 Q1846.85 1855.74 1849.2 1848.54 Q1851.56 1841.35 1856.36 1833.84 L1861.46 1833.84 Z" fill="#000000" fill-rule="nonzero" fill-opacity="1" /><path clip-path="url(#clip670)" d="M1893.79 1831.55 Q1893.79 1829.54 1892.36 1828.14 Q1890.96 1826.71 1888.96 1826.71 Q1886.92 1826.71 1885.52 1828.11 Q1884.15 1829.48 1884.15 1831.55 Q1884.15 1833.55 1885.55 1834.95 Q1886.95 1836.35 1888.96 1836.35 Q1890.96 1836.35 1892.36 1834.95 Q1893.79 1833.55 1893.79 1831.55 M1888.96 1842.11 L1880.3 1865.76 L1897.65 1865.76 L1888.96 1842.11 M1884.15 1838.84 Q1882.21 1837.53 1881.22 1835.72 Q1880.24 1833.87 1880.24 1831.55 Q1880.24 1827.89 1882.75 1825.34 Q1885.3 1822.79 1888.96 1822.79 Q1892.58 1822.79 1895.13 1825.37 Q1897.71 1827.92 1897.71 1831.55 Q1897.71 1833.78 1896.69 1835.65 Q1895.7 1837.53 1893.79 1838.84 L1910.73 1883.3 L1904.04 1883.3 L1899.71 1871.11 L1878.29 1871.11 L1873.97 1883.3 L1867.19 1883.3 L1884.15 1838.84 Z" fill="#000000" fill-rule="nonzero" fill-opacity="1" /><path clip-path="url(#clip670)" d="M1916.49 1833.84 L1921.58 1833.84 Q1926.36 1841.35 1928.71 1848.54 Q1931.1 1855.74 1931.1 1862.84 Q1931.1 1869.96 1928.71 1877.19 Q1926.36 1884.41 1921.58 1891.89 L1916.49 1891.89 Q1920.72 1884.61 1922.79 1877.41 Q1924.89 1870.19 1924.89 1862.84 Q1924.89 1855.48 1922.79 1848.32 Q1920.72 1841.16 1916.49 1833.84 Z" fill="#000000" fill-rule="nonzero" fill-opacity="1" /><polyline clip-path="url(#clip670)" style="stroke:#000000; stroke-linecap:round; stroke-linejoin:round; stroke-width:4; stroke-opacity:1; fill:none" points="227.911,1734.12 227.911,127.792 "/>
<polyline clip-path="url(#clip670)" style="stroke:#000000; stroke-linecap:round; stroke-linejoin:round; stroke-width:4; stroke-opacity:1; fill:none" points="227.911,1249.7 246.809,1249.7 "/>
<polyline clip-path="url(#clip670)" style="stroke:#000000; stroke-linecap:round; stroke-linejoin:round; stroke-width:4; stroke-opacity:1; fill:none" points="227.911,401.136 246.809,401.136 "/>
<path clip-path="url(#clip670)" d="M116.886 1269.49 L124.525 1269.49 L124.525 1243.13 L116.214 1244.79 L116.214 1240.54 L124.478 1238.87 L129.154 1238.87 L129.154 1269.49 L136.793 1269.49 L136.793 1273.43 L116.886 1273.43 L116.886 1269.49 Z" fill="#000000" fill-rule="nonzero" fill-opacity="1" /><path clip-path="url(#clip670)" d="M156.237 1241.95 Q152.626 1241.95 150.798 1245.51 Q148.992 1249.05 148.992 1256.18 Q148.992 1263.29 150.798 1266.85 Q152.626 1270.4 156.237 1270.4 Q159.872 1270.4 161.677 1266.85 Q163.506 1263.29 163.506 1256.18 Q163.506 1249.05 161.677 1245.51 Q159.872 1241.95 156.237 1241.95 M156.237 1238.24 Q162.048 1238.24 165.103 1242.85 Q168.182 1247.43 168.182 1256.18 Q168.182 1264.91 165.103 1269.52 Q162.048 1274.1 156.237 1274.1 Q150.427 1274.1 147.349 1269.52 Q144.293 1264.91 144.293 1256.18 Q144.293 1247.43 147.349 1242.85 Q150.427 1238.24 156.237 1238.24 Z" fill="#000000" fill-rule="nonzero" fill-opacity="1" /><path clip-path="url(#clip670)" d="M177.887 1220.44 Q174.953 1220.44 173.467 1223.34 Q172 1226.21 172 1232.01 Q172 1237.78 173.467 1240.68 Q174.953 1243.55 177.887 1243.55 Q180.839 1243.55 182.306 1240.68 Q183.792 1237.78 183.792 1232.01 Q183.792 1226.21 182.306 1223.34 Q180.839 1220.44 177.887 1220.44 M177.887 1217.43 Q182.607 1217.43 185.09 1221.17 Q187.591 1224.9 187.591 1232.01 Q187.591 1239.1 185.09 1242.84 Q182.607 1246.56 177.887 1246.56 Q173.166 1246.56 170.664 1242.84 Q168.182 1239.1 168.182 1232.01 Q168.182 1224.9 170.664 1221.17 Q173.166 1217.43 177.887 1217.43 Z" fill="#000000" fill-rule="nonzero" fill-opacity="1" /><path clip-path="url(#clip670)" d="M119.575 420.929 L127.214 420.929 L127.214 394.563 L118.904 396.23 L118.904 391.971 L127.168 390.304 L131.844 390.304 L131.844 420.929 L139.483 420.929 L139.483 424.864 L119.575 424.864 L119.575 420.929 Z" fill="#000000" fill-rule="nonzero" fill-opacity="1" /><path clip-path="url(#clip670)" d="M158.927 393.383 Q155.316 393.383 153.487 396.947 Q151.682 400.489 151.682 407.619 Q151.682 414.725 153.487 418.29 Q155.316 421.832 158.927 421.832 Q162.561 421.832 164.367 418.29 Q166.195 414.725 166.195 407.619 Q166.195 400.489 164.367 396.947 Q162.561 393.383 158.927 393.383 M158.927 389.679 Q164.737 389.679 167.793 394.285 Q170.871 398.869 170.871 407.619 Q170.871 416.346 167.793 420.952 Q164.737 425.535 158.927 425.535 Q153.117 425.535 150.038 420.952 Q146.983 416.346 146.983 407.619 Q146.983 398.869 150.038 394.285 Q153.117 389.679 158.927 389.679 Z" fill="#000000" fill-rule="nonzero" fill-opacity="1" /><path clip-path="url(#clip670)" d="M171.417 394.256 L177.623 394.256 L177.623 372.834 L170.871 374.188 L170.871 370.728 L177.586 369.374 L181.385 369.374 L181.385 394.256 L187.591 394.256 L187.591 397.454 L171.417 397.454 L171.417 394.256 Z" fill="#000000" fill-rule="nonzero" fill-opacity="1" /><path clip-path="url(#clip670)" d="M14.1184 1340.89 L14.1184 1310.84 L19.5293 1310.84 L19.5293 1334.46 L33.5975 1334.46 L33.5975 1311.83 L39.0084 1311.83 L39.0084 1334.46 L56.2276 1334.46 L56.2276 1310.27 L61.6384 1310.27 L61.6384 1340.89 L14.1184 1340.89 Z" fill="#000000" fill-rule="nonzero" fill-opacity="1" /><path clip-path="url(#clip670)" d="M12.1132 1299.96 L12.1132 1294.1 L61.6384 1294.1 L61.6384 1299.96 L12.1132 1299.96 Z" fill="#000000" fill-rule="nonzero" fill-opacity="1" /><path clip-path="url(#clip670)" d="M42.3504 1251.36 L45.2149 1251.36 L45.2149 1278.28 Q51.2623 1277.9 54.4452 1274.65 Q57.5962 1271.38 57.5962 1265.55 Q57.5962 1262.18 56.7687 1259.03 Q55.9411 1255.84 54.2861 1252.73 L59.8242 1252.73 Q61.161 1255.88 61.8612 1259.19 Q62.5615 1262.5 62.5615 1265.9 Q62.5615 1274.43 57.5962 1279.43 Q52.631 1284.39 44.1646 1284.39 Q35.4117 1284.39 30.2873 1279.68 Q25.1311 1274.94 25.1311 1266.92 Q25.1311 1259.73 29.7781 1255.56 Q34.3932 1251.36 42.3504 1251.36 M40.6316 1257.21 Q35.8255 1257.28 32.9609 1259.92 Q30.0964 1262.53 30.0964 1266.86 Q30.0964 1271.76 32.8654 1274.72 Q35.6345 1277.65 40.6634 1278.09 L40.6316 1257.21 Z" fill="#000000" fill-rule="nonzero" fill-opacity="1" /><path clip-path="url(#clip670)" d="M27.3591 1216.09 L32.8336 1216.09 Q31.465 1218.57 30.7966 1221.09 Q30.0964 1223.57 30.0964 1226.12 Q30.0964 1231.81 33.7248 1234.96 Q37.3214 1238.12 43.8463 1238.12 Q50.3711 1238.12 53.9996 1234.96 Q57.5962 1231.81 57.5962 1226.12 Q57.5962 1223.57 56.9278 1221.09 Q56.2276 1218.57 54.859 1216.09 L60.2698 1216.09 Q61.4156 1218.54 61.9886 1221.18 Q62.5615 1223.79 62.5615 1226.75 Q62.5615 1234.81 57.5007 1239.55 Q52.44 1244.29 43.8463 1244.29 Q35.1253 1244.29 30.1282 1239.52 Q25.1311 1234.71 25.1311 1226.37 Q25.1311 1223.67 25.704 1221.09 Q26.2451 1218.51 27.3591 1216.09 Z" fill="#000000" fill-rule="nonzero" fill-opacity="1" /><path clip-path="url(#clip670)" d="M15.869 1200.11 L25.9905 1200.11 L25.9905 1188.05 L30.542 1188.05 L30.542 1200.11 L49.8937 1200.11 Q54.2542 1200.11 55.4955 1198.93 Q56.7368 1197.73 56.7368 1194.07 L56.7368 1188.05 L61.6384 1188.05 L61.6384 1194.07 Q61.6384 1200.84 59.124 1203.42 Q56.5777 1206 49.8937 1206 L30.542 1206 L30.542 1210.3 L25.9905 1210.3 L25.9905 1206 L15.869 1206 L15.869 1200.11 Z" fill="#000000" fill-rule="nonzero" fill-opacity="1" /><path clip-path="url(#clip670)" d="M31.465 1159.69 Q30.8921 1160.68 30.6375 1161.85 Q30.351 1163 30.351 1164.4 Q30.351 1169.37 33.5975 1172.04 Q36.8122 1174.68 42.8596 1174.68 L61.6384 1174.68 L61.6384 1180.57 L25.9905 1180.57 L25.9905 1174.68 L31.5287 1174.68 Q28.2821 1172.84 26.7225 1169.88 Q25.1311 1166.92 25.1311 1162.68 Q25.1311 1162.08 25.2266 1161.35 Q25.2903 1160.61 25.4494 1159.72 L31.465 1159.69 Z" fill="#000000" fill-rule="nonzero" fill-opacity="1" /><path clip-path="url(#clip670)" d="M30.0964 1141.17 Q30.0964 1145.88 33.7885 1148.61 Q37.4488 1151.35 43.8463 1151.35 Q50.2438 1151.35 53.9359 1148.65 Q57.5962 1145.91 57.5962 1141.17 Q57.5962 1136.49 53.9041 1133.75 Q50.212 1131.01 43.8463 1131.01 Q37.5124 1131.01 33.8203 1133.75 Q30.0964 1136.49 30.0964 1141.17 M25.1311 1141.17 Q25.1311 1133.53 30.0964 1129.17 Q35.0616 1124.81 43.8463 1124.81 Q52.5991 1124.81 57.5962 1129.17 Q62.5615 1133.53 62.5615 1141.17 Q62.5615 1148.84 57.5962 1153.2 Q52.5991 1157.53 43.8463 1157.53 Q35.0616 1157.53 30.0964 1153.2 Q25.1311 1148.84 25.1311 1141.17 Z" fill="#000000" fill-rule="nonzero" fill-opacity="1" /><path clip-path="url(#clip670)" d="M27.0408 1092.37 L32.579 1092.37 Q31.3059 1094.86 30.6693 1097.53 Q30.0327 1100.2 30.0327 1103.07 Q30.0327 1107.43 31.3695 1109.62 Q32.7063 1111.79 35.3799 1111.79 Q37.4169 1111.79 38.5946 1110.23 Q39.7404 1108.67 40.7908 1103.96 L41.2364 1101.95 Q42.5732 1095.71 45.0239 1093.11 Q47.4429 1090.46 51.8034 1090.46 Q56.7687 1090.46 59.6651 1094.41 Q62.5615 1098.32 62.5615 1105.2 Q62.5615 1108.06 61.9886 1111.18 Q61.4475 1114.27 60.3335 1117.71 L54.2861 1117.71 Q55.973 1114.46 56.8323 1111.31 Q57.6599 1108.16 57.6599 1105.07 Q57.6599 1100.93 56.2594 1098.71 Q54.8271 1096.48 52.249 1096.48 Q49.8619 1096.48 48.5887 1098.1 Q47.3156 1099.69 46.1379 1105.14 L45.6605 1107.17 Q44.5147 1112.62 42.1594 1115.03 Q39.7722 1117.45 35.6345 1117.45 Q30.6056 1117.45 27.8684 1113.89 Q25.1311 1110.32 25.1311 1103.77 Q25.1311 1100.52 25.6085 1097.66 Q26.086 1094.79 27.0408 1092.37 Z" fill="#000000" fill-rule="nonzero" fill-opacity="1" /><path clip-path="url(#clip670)" d="M15.869 1075.34 L25.9905 1075.34 L25.9905 1063.28 L30.542 1063.28 L30.542 1075.34 L49.8937 1075.34 Q54.2542 1075.34 55.4955 1074.17 Q56.7368 1072.96 56.7368 1069.3 L56.7368 1063.28 L61.6384 1063.28 L61.6384 1069.3 Q61.6384 1076.08 59.124 1078.65 Q56.5777 1081.23 49.8937 1081.23 L30.542 1081.23 L30.542 1085.53 L25.9905 1085.53 L25.9905 1081.23 L15.869 1081.23 L15.869 1075.34 Z" fill="#000000" fill-rule="nonzero" fill-opacity="1" /><path clip-path="url(#clip670)" d="M43.719 1039.38 Q43.719 1046.48 45.3422 1049.21 Q46.9655 1051.95 50.8804 1051.95 Q53.9996 1051.95 55.8457 1049.91 Q57.6599 1047.84 57.6599 1044.31 Q57.6599 1039.44 54.2224 1036.51 Q50.7531 1033.55 45.0239 1033.55 L43.719 1033.55 L43.719 1039.38 M41.3 1027.7 L61.6384 1027.7 L61.6384 1033.55 L56.2276 1033.55 Q59.4741 1035.56 61.0337 1038.55 Q62.5615 1041.54 62.5615 1045.87 Q62.5615 1051.35 59.5059 1054.59 Q56.4186 1057.81 51.2623 1057.81 Q45.2467 1057.81 42.1912 1053.8 Q39.1357 1049.75 39.1357 1041.77 L39.1357 1033.55 L38.5628 1033.55 Q34.5205 1033.55 32.3244 1036.23 Q30.0964 1038.87 30.0964 1043.68 Q30.0964 1046.73 30.8284 1049.63 Q31.5605 1052.52 33.0246 1055.2 L27.6137 1055.2 Q26.3724 1051.98 25.7677 1048.96 Q25.1311 1045.94 25.1311 1043.07 Q25.1311 1035.34 29.1415 1031.52 Q33.1519 1027.7 41.3 1027.7 Z" fill="#000000" fill-rule="nonzero" fill-opacity="1" /><path clip-path="url(#clip670)" d="M15.869 1009.84 L25.9905 1009.84 L25.9905 997.779 L30.542 997.779 L30.542 1009.84 L49.8937 1009.84 Q54.2542 1009.84 55.4955 1008.66 Q56.7368 1007.45 56.7368 1003.79 L56.7368 997.779 L61.6384 997.779 L61.6384 1003.79 Q61.6384 1010.57 59.124 1013.15 Q56.5777 1015.73 49.8937 1015.73 L30.542 1015.73 L30.542 1020.03 L25.9905 1020.03 L25.9905 1015.73 L15.869 1015.73 L15.869 1009.84 Z" fill="#000000" fill-rule="nonzero" fill-opacity="1" /><path clip-path="url(#clip670)" d="M25.9905 990.076 L25.9905 984.22 L61.6384 984.22 L61.6384 990.076 L25.9905 990.076 M12.1132 990.076 L12.1132 984.22 L19.5293 984.22 L19.5293 990.076 L12.1132 990.076 Z" fill="#000000" fill-rule="nonzero" fill-opacity="1" /><path clip-path="url(#clip670)" d="M27.3591 946.312 L32.8336 946.312 Q31.465 948.794 30.7966 951.309 Q30.0964 953.792 30.0964 956.338 Q30.0964 962.035 33.7248 965.186 Q37.3214 968.337 43.8463 968.337 Q50.3711 968.337 53.9996 965.186 Q57.5962 962.035 57.5962 956.338 Q57.5962 953.792 56.9278 951.309 Q56.2276 948.794 54.859 946.312 L60.2698 946.312 Q61.4156 948.763 61.9886 951.404 Q62.5615 954.014 62.5615 956.974 Q62.5615 965.027 57.5007 969.769 Q52.44 974.512 43.8463 974.512 Q35.1253 974.512 30.1282 969.738 Q25.1311 964.932 25.1311 956.592 Q25.1311 953.887 25.704 951.309 Q26.2451 948.731 27.3591 946.312 Z" fill="#000000" fill-rule="nonzero" fill-opacity="1" /><path clip-path="url(#clip670)" d="M56.2912 909.741 L75.1974 909.741 L75.1974 915.629 L25.9905 915.629 L25.9905 909.741 L31.4013 909.741 Q28.2185 907.895 26.6907 905.094 Q25.1311 902.261 25.1311 898.346 Q25.1311 891.853 30.2873 887.811 Q35.4436 883.737 43.8463 883.737 Q52.249 883.737 57.4052 887.811 Q62.5615 891.853 62.5615 898.346 Q62.5615 902.261 61.0337 905.094 Q59.4741 907.895 56.2912 909.741 M43.8463 889.816 Q37.3851 889.816 33.7248 892.49 Q30.0327 895.132 30.0327 899.779 Q30.0327 904.425 33.7248 907.099 Q37.3851 909.741 43.8463 909.741 Q50.3075 909.741 53.9996 907.099 Q57.6599 904.425 57.6599 899.779 Q57.6599 895.132 53.9996 892.49 Q50.3075 889.816 43.8463 889.816 Z" fill="#000000" fill-rule="nonzero" fill-opacity="1" /><path clip-path="url(#clip670)" d="M30.0964 860.216 Q30.0964 864.926 33.7885 867.664 Q37.4488 870.401 43.8463 870.401 Q50.2438 870.401 53.9359 867.695 Q57.5962 864.958 57.5962 860.216 Q57.5962 855.537 53.9041 852.8 Q50.212 850.062 43.8463 850.062 Q37.5124 850.062 33.8203 852.8 Q30.0964 855.537 30.0964 860.216 M25.1311 860.216 Q25.1311 852.577 30.0964 848.216 Q35.0616 843.856 43.8463 843.856 Q52.5991 843.856 57.5962 848.216 Q62.5615 852.577 62.5615 860.216 Q62.5615 867.886 57.5962 872.247 Q52.5991 876.576 43.8463 876.576 Q35.0616 876.576 30.0964 872.247 Q25.1311 867.886 25.1311 860.216 Z" fill="#000000" fill-rule="nonzero" fill-opacity="1" /><path clip-path="url(#clip670)" d="M15.869 828.355 L25.9905 828.355 L25.9905 816.292 L30.542 816.292 L30.542 828.355 L49.8937 828.355 Q54.2542 828.355 55.4955 827.178 Q56.7368 825.968 56.7368 822.308 L56.7368 816.292 L61.6384 816.292 L61.6384 822.308 Q61.6384 829.087 59.124 831.665 Q56.5777 834.244 49.8937 834.244 L30.542 834.244 L30.542 838.54 L25.9905 838.54 L25.9905 834.244 L15.869 834.244 L15.869 828.355 Z" fill="#000000" fill-rule="nonzero" fill-opacity="1" /><path clip-path="url(#clip670)" d="M42.3504 778.098 L45.2149 778.098 L45.2149 805.025 Q51.2623 804.643 54.4452 801.397 Q57.5962 798.118 57.5962 792.294 Q57.5962 788.92 56.7687 785.769 Q55.9411 782.586 54.2861 779.467 L59.8242 779.467 Q61.161 782.618 61.8612 785.928 Q62.5615 789.238 62.5615 792.644 Q62.5615 801.174 57.5962 806.171 Q52.631 811.136 44.1646 811.136 Q35.4117 811.136 30.2873 806.425 Q25.1311 801.683 25.1311 793.662 Q25.1311 786.469 29.7781 782.299 Q34.3932 778.098 42.3504 778.098 M40.6316 783.954 Q35.8255 784.018 32.9609 786.66 Q30.0964 789.27 30.0964 793.599 Q30.0964 798.5 32.8654 801.46 Q35.6345 804.388 40.6634 804.834 L40.6316 783.954 Z" fill="#000000" fill-rule="nonzero" fill-opacity="1" /><path clip-path="url(#clip670)" d="M40.1224 738.853 L61.6384 738.853 L61.6384 744.71 L40.3133 744.71 Q35.2526 744.71 32.7381 746.683 Q30.2237 748.657 30.2237 752.603 Q30.2237 757.346 33.2474 760.083 Q36.2711 762.82 41.491 762.82 L61.6384 762.82 L61.6384 768.709 L25.9905 768.709 L25.9905 762.82 L31.5287 762.82 Q28.314 760.72 26.7225 757.887 Q25.1311 755.022 25.1311 751.298 Q25.1311 745.155 28.9505 742.004 Q32.7381 738.853 40.1224 738.853 Z" fill="#000000" fill-rule="nonzero" fill-opacity="1" /><path clip-path="url(#clip670)" d="M15.869 721.38 L25.9905 721.38 L25.9905 709.317 L30.542 709.317 L30.542 721.38 L49.8937 721.38 Q54.2542 721.38 55.4955 720.202 Q56.7368 718.992 56.7368 715.332 L56.7368 709.317 L61.6384 709.317 L61.6384 715.332 Q61.6384 722.112 59.124 724.69 Q56.5777 727.268 49.8937 727.268 L30.542 727.268 L30.542 731.565 L25.9905 731.565 L25.9905 727.268 L15.869 727.268 L15.869 721.38 Z" fill="#000000" fill-rule="nonzero" fill-opacity="1" /><path clip-path="url(#clip670)" d="M25.9905 701.614 L25.9905 695.758 L61.6384 695.758 L61.6384 701.614 L25.9905 701.614 M12.1132 701.614 L12.1132 695.758 L19.5293 695.758 L19.5293 701.614 L12.1132 701.614 Z" fill="#000000" fill-rule="nonzero" fill-opacity="1" /><path clip-path="url(#clip670)" d="M43.719 667.303 Q43.719 674.401 45.3422 677.138 Q46.9655 679.875 50.8804 679.875 Q53.9996 679.875 55.8457 677.838 Q57.6599 675.769 57.6599 672.236 Q57.6599 667.367 54.2224 664.438 Q50.7531 661.478 45.0239 661.478 L43.719 661.478 L43.719 667.303 M41.3 655.622 L61.6384 655.622 L61.6384 661.478 L56.2276 661.478 Q59.4741 663.483 61.0337 666.475 Q62.5615 669.467 62.5615 673.796 Q62.5615 679.27 59.5059 682.517 Q56.4186 685.732 51.2623 685.732 Q45.2467 685.732 42.1912 681.721 Q39.1357 677.679 39.1357 669.69 L39.1357 661.478 L38.5628 661.478 Q34.5205 661.478 32.3244 664.152 Q30.0964 666.794 30.0964 671.6 Q30.0964 674.655 30.8284 677.552 Q31.5605 680.448 33.0246 683.122 L27.6137 683.122 Q26.3724 679.907 25.7677 676.883 Q25.1311 673.86 25.1311 670.995 Q25.1311 663.261 29.1415 659.441 Q33.1519 655.622 41.3 655.622 Z" fill="#000000" fill-rule="nonzero" fill-opacity="1" /><path clip-path="url(#clip670)" d="M12.1132 643.559 L12.1132 637.702 L61.6384 637.702 L61.6384 643.559 L12.1132 643.559 Z" fill="#000000" fill-rule="nonzero" fill-opacity="1" /><path clip-path="url(#clip670)" d="M12.1769 590.66 Q19.4975 594.925 26.6589 596.994 Q33.8203 599.063 41.1727 599.063 Q48.5251 599.063 55.7502 596.994 Q62.9434 594.893 70.2321 590.66 L70.2321 595.752 Q62.7524 600.527 55.5274 602.914 Q48.3023 605.269 41.1727 605.269 Q34.0749 605.269 26.8817 602.914 Q19.6884 600.558 12.1769 595.752 L12.1769 590.66 Z" fill="#000000" fill-rule="nonzero" fill-opacity="1" /><path clip-path="url(#clip670)" d="M61.6384 566.788 L14.1184 584.931 L14.1184 578.215 L54.1269 563.16 L14.1184 548.073 L14.1184 541.389 L61.6384 559.5 L61.6384 566.788 Z" fill="#000000" fill-rule="nonzero" fill-opacity="1" /><path clip-path="url(#clip670)" d="M12.1769 535.628 L12.1769 530.536 Q19.6884 525.761 26.8817 523.406 Q34.0749 521.019 41.1727 521.019 Q48.3023 521.019 55.5274 523.406 Q62.7524 525.761 70.2321 530.536 L70.2321 535.628 Q62.9434 531.395 55.7502 529.326 Q48.5251 527.226 41.1727 527.226 Q33.8203 527.226 26.6589 529.326 Q19.4975 531.395 12.1769 535.628 Z" fill="#000000" fill-rule="nonzero" fill-opacity="1" /><path clip-path="url(#clip670)" d="M635.009 12.096 L673.25 12.096 L673.25 18.9825 L643.192 18.9825 L643.192 36.8875 L671.994 36.8875 L671.994 43.7741 L643.192 43.7741 L643.192 65.6895 L673.979 65.6895 L673.979 72.576 L635.009 72.576 L635.009 12.096 Z" fill="#000000" fill-rule="nonzero" fill-opacity="1" /><path clip-path="url(#clip670)" d="M687.104 9.54393 L694.558 9.54393 L694.558 72.576 L687.104 72.576 L687.104 9.54393 Z" fill="#000000" fill-rule="nonzero" fill-opacity="1" /><path clip-path="url(#clip670)" d="M748.961 48.0275 L748.961 51.6733 L714.691 51.6733 Q715.177 59.3701 719.309 63.421 Q723.481 67.4314 730.894 67.4314 Q735.188 67.4314 739.198 66.3781 Q743.249 65.3249 747.219 63.2184 L747.219 70.267 Q743.209 71.9684 738.996 72.8596 Q734.783 73.7508 730.449 73.7508 Q719.592 73.7508 713.232 67.4314 Q706.913 61.1119 706.913 50.3365 Q706.913 39.1965 712.908 32.6746 Q718.944 26.1121 729.152 26.1121 Q738.307 26.1121 743.614 32.0264 Q748.961 37.9003 748.961 48.0275 M741.507 45.84 Q741.426 39.7232 738.064 36.0774 Q734.742 32.4315 729.233 32.4315 Q722.995 32.4315 719.228 35.9558 Q715.501 39.4801 714.934 45.8805 L741.507 45.84 Z" fill="#000000" fill-rule="nonzero" fill-opacity="1" /><path clip-path="url(#clip670)" d="M793.845 28.9478 L793.845 35.9153 Q790.685 34.1734 787.485 33.3227 Q784.326 32.4315 781.085 32.4315 Q773.834 32.4315 769.823 37.0496 Q765.813 41.6271 765.813 49.9314 Q765.813 58.2358 769.823 62.8538 Q773.834 67.4314 781.085 67.4314 Q784.326 67.4314 787.485 66.5807 Q790.685 65.6895 793.845 63.9476 L793.845 70.8341 Q790.726 72.2924 787.364 73.0216 Q784.042 73.7508 780.275 73.7508 Q770.026 73.7508 763.99 67.3098 Q757.954 60.8689 757.954 49.9314 Q757.954 38.832 764.031 32.472 Q770.147 26.1121 780.761 26.1121 Q784.204 26.1121 787.485 26.8413 Q790.766 27.5299 793.845 28.9478 Z" fill="#000000" fill-rule="nonzero" fill-opacity="1" /><path clip-path="url(#clip670)" d="M814.181 14.324 L814.181 27.2059 L829.534 27.2059 L829.534 32.9987 L814.181 32.9987 L814.181 57.6282 Q814.181 63.1779 815.68 64.7578 Q817.219 66.3376 821.877 66.3376 L829.534 66.3376 L829.534 72.576 L821.877 72.576 Q813.249 72.576 809.968 69.3758 Q806.687 66.1351 806.687 57.6282 L806.687 32.9987 L801.218 32.9987 L801.218 27.2059 L806.687 27.2059 L806.687 14.324 L814.181 14.324 Z" fill="#000000" fill-rule="nonzero" fill-opacity="1" /><path clip-path="url(#clip670)" d="M865.627 34.1734 Q864.371 33.4443 862.873 33.1202 Q861.414 32.7556 859.632 32.7556 Q853.312 32.7556 849.91 36.8875 Q846.547 40.9789 846.547 48.6757 L846.547 72.576 L839.053 72.576 L839.053 27.2059 L846.547 27.2059 L846.547 34.2544 Q848.897 30.1225 852.664 28.1376 Q856.432 26.1121 861.819 26.1121 Q862.589 26.1121 863.521 26.2337 Q864.452 26.3147 865.587 26.5172 L865.627 34.1734 Z" fill="#000000" fill-rule="nonzero" fill-opacity="1" /><path clip-path="url(#clip670)" d="M889.203 32.4315 Q883.208 32.4315 879.724 37.1306 Q876.241 41.7891 876.241 49.9314 Q876.241 58.0738 879.684 62.7728 Q883.168 67.4314 889.203 67.4314 Q895.158 67.4314 898.642 62.7323 Q902.126 58.0333 902.126 49.9314 Q902.126 41.8701 898.642 37.1711 Q895.158 32.4315 889.203 32.4315 M889.203 26.1121 Q898.926 26.1121 904.475 32.4315 Q910.025 38.7509 910.025 49.9314 Q910.025 61.0714 904.475 67.4314 Q898.926 73.7508 889.203 73.7508 Q879.441 73.7508 873.891 67.4314 Q868.382 61.0714 868.382 49.9314 Q868.382 38.7509 873.891 32.4315 Q879.441 26.1121 889.203 26.1121 Z" fill="#000000" fill-rule="nonzero" fill-opacity="1" /><path clip-path="url(#clip670)" d="M951.304 28.5427 L951.304 35.5912 Q948.144 33.9709 944.741 33.1607 Q941.339 32.3505 937.693 32.3505 Q932.143 32.3505 929.348 34.0519 Q926.593 35.7533 926.593 39.156 Q926.593 41.7486 928.578 43.2475 Q930.563 44.7058 936.559 46.0426 L939.111 46.6097 Q947.05 48.3111 950.372 51.4303 Q953.734 54.509 953.734 60.0587 Q953.734 66.3781 948.711 70.0644 Q943.729 73.7508 934.979 73.7508 Q931.333 73.7508 927.363 73.0216 Q923.434 72.3329 919.059 70.9151 L919.059 63.2184 Q923.191 65.3654 927.201 66.4591 Q931.211 67.5124 935.141 67.5124 Q940.407 67.5124 943.243 65.73 Q946.078 63.9071 946.078 60.6258 Q946.078 57.5877 944.012 55.9673 Q941.987 54.3469 935.06 52.8481 L932.467 52.2405 Q925.54 50.7821 922.461 47.7845 Q919.383 44.7463 919.383 39.4801 Q919.383 33.0797 923.92 29.5959 Q928.457 26.1121 936.802 26.1121 Q940.934 26.1121 944.579 26.7198 Q948.225 27.3274 951.304 28.5427 Z" fill="#000000" fill-rule="nonzero" fill-opacity="1" /><path clip-path="url(#clip670)" d="M972.976 14.324 L972.976 27.2059 L988.329 27.2059 L988.329 32.9987 L972.976 32.9987 L972.976 57.6282 Q972.976 63.1779 974.475 64.7578 Q976.014 66.3376 980.673 66.3376 L988.329 66.3376 L988.329 72.576 L980.673 72.576 Q972.044 72.576 968.763 69.3758 Q965.482 66.1351 965.482 57.6282 L965.482 32.9987 L960.013 32.9987 L960.013 27.2059 L965.482 27.2059 L965.482 14.324 L972.976 14.324 Z" fill="#000000" fill-rule="nonzero" fill-opacity="1" /><path clip-path="url(#clip670)" d="M1018.75 49.7694 Q1009.72 49.7694 1006.23 51.8354 Q1002.75 53.9013 1002.75 58.8839 Q1002.75 62.8538 1005.34 65.2034 Q1007.98 67.5124 1012.47 67.5124 Q1018.67 67.5124 1022.4 63.1374 Q1026.16 58.7219 1026.16 51.4303 L1026.16 49.7694 L1018.75 49.7694 M1033.62 46.6907 L1033.62 72.576 L1026.16 72.576 L1026.16 65.6895 Q1023.61 69.8214 1019.8 71.8063 Q1016 73.7508 1010.49 73.7508 Q1003.52 73.7508 999.388 69.8619 Q995.297 65.9325 995.297 59.3701 Q995.297 51.7138 1000.4 47.825 Q1005.55 43.9361 1015.71 43.9361 L1026.16 43.9361 L1026.16 43.2069 Q1026.16 38.0623 1022.76 35.2672 Q1019.4 32.4315 1013.28 32.4315 Q1009.39 32.4315 1005.71 33.3632 Q1002.02 34.295 998.618 36.1584 L998.618 29.2718 Q1002.71 27.692 1006.56 26.9223 Q1010.41 26.1121 1014.05 26.1121 Q1023.9 26.1121 1028.76 31.2163 Q1033.62 36.3204 1033.62 46.6907 Z" fill="#000000" fill-rule="nonzero" fill-opacity="1" /><path clip-path="url(#clip670)" d="M1056.34 14.324 L1056.34 27.2059 L1071.7 27.2059 L1071.7 32.9987 L1056.34 32.9987 L1056.34 57.6282 Q1056.34 63.1779 1057.84 64.7578 Q1059.38 66.3376 1064.04 66.3376 L1071.7 66.3376 L1071.7 72.576 L1064.04 72.576 Q1055.41 72.576 1052.13 69.3758 Q1048.85 66.1351 1048.85 57.6282 L1048.85 32.9987 L1043.38 32.9987 L1043.38 27.2059 L1048.85 27.2059 L1048.85 14.324 L1056.34 14.324 Z" fill="#000000" fill-rule="nonzero" fill-opacity="1" /><path clip-path="url(#clip670)" d="M1081.5 27.2059 L1088.95 27.2059 L1088.95 72.576 L1081.5 72.576 L1081.5 27.2059 M1081.5 9.54393 L1088.95 9.54393 L1088.95 18.9825 L1081.5 18.9825 L1081.5 9.54393 Z" fill="#000000" fill-rule="nonzero" fill-opacity="1" /><path clip-path="url(#clip670)" d="M1137.2 28.9478 L1137.2 35.9153 Q1134.04 34.1734 1130.84 33.3227 Q1127.68 32.4315 1124.44 32.4315 Q1117.19 32.4315 1113.18 37.0496 Q1109.17 41.6271 1109.17 49.9314 Q1109.17 58.2358 1113.18 62.8538 Q1117.19 67.4314 1124.44 67.4314 Q1127.68 67.4314 1130.84 66.5807 Q1134.04 65.6895 1137.2 63.9476 L1137.2 70.8341 Q1134.08 72.2924 1130.72 73.0216 Q1127.4 73.7508 1123.63 73.7508 Q1113.38 73.7508 1107.34 67.3098 Q1101.31 60.8689 1101.31 49.9314 Q1101.31 38.832 1107.39 32.472 Q1113.5 26.1121 1124.12 26.1121 Q1127.56 26.1121 1130.84 26.8413 Q1134.12 27.5299 1137.2 28.9478 Z" fill="#000000" fill-rule="nonzero" fill-opacity="1" /><path clip-path="url(#clip670)" d="M1183.74 65.7705 L1183.74 89.8329 L1176.25 89.8329 L1176.25 27.2059 L1183.74 27.2059 L1183.74 34.0924 Q1186.09 30.0415 1189.66 28.0971 Q1193.26 26.1121 1198.25 26.1121 Q1206.51 26.1121 1211.66 32.6746 Q1216.84 39.2371 1216.84 49.9314 Q1216.84 60.6258 1211.66 67.1883 Q1206.51 73.7508 1198.25 73.7508 Q1193.26 73.7508 1189.66 71.8063 Q1186.09 69.8214 1183.74 65.7705 M1209.1 49.9314 Q1209.1 41.7081 1205.7 37.0496 Q1202.34 32.3505 1196.42 32.3505 Q1190.51 32.3505 1187.11 37.0496 Q1183.74 41.7081 1183.74 49.9314 Q1183.74 58.1548 1187.11 62.8538 Q1190.51 67.5124 1196.42 67.5124 Q1202.34 67.5124 1205.7 62.8538 Q1209.1 58.1548 1209.1 49.9314 Z" fill="#000000" fill-rule="nonzero" fill-opacity="1" /><path clip-path="url(#clip670)" d="M1246.78 32.4315 Q1240.78 32.4315 1237.3 37.1306 Q1233.81 41.7891 1233.81 49.9314 Q1233.81 58.0738 1237.26 62.7728 Q1240.74 67.4314 1246.78 67.4314 Q1252.73 67.4314 1256.22 62.7323 Q1259.7 58.0333 1259.7 49.9314 Q1259.7 41.8701 1256.22 37.1711 Q1252.73 32.4315 1246.78 32.4315 M1246.78 26.1121 Q1256.5 26.1121 1262.05 32.4315 Q1267.6 38.7509 1267.6 49.9314 Q1267.6 61.0714 1262.05 67.4314 Q1256.5 73.7508 1246.78 73.7508 Q1237.01 73.7508 1231.46 67.4314 Q1225.96 61.0714 1225.96 49.9314 Q1225.96 38.7509 1231.46 32.4315 Q1237.01 26.1121 1246.78 26.1121 Z" fill="#000000" fill-rule="nonzero" fill-opacity="1" /><path clip-path="url(#clip670)" d="M1287.33 14.324 L1287.33 27.2059 L1302.68 27.2059 L1302.68 32.9987 L1287.33 32.9987 L1287.33 57.6282 Q1287.33 63.1779 1288.83 64.7578 Q1290.36 66.3376 1295.02 66.3376 L1302.68 66.3376 L1302.68 72.576 L1295.02 72.576 Q1286.39 72.576 1283.11 69.3758 Q1279.83 66.1351 1279.83 57.6282 L1279.83 32.9987 L1274.36 32.9987 L1274.36 27.2059 L1279.83 27.2059 L1279.83 14.324 L1287.33 14.324 Z" fill="#000000" fill-rule="nonzero" fill-opacity="1" /><path clip-path="url(#clip670)" d="M1351.29 48.0275 L1351.29 51.6733 L1317.02 51.6733 Q1317.51 59.3701 1321.64 63.421 Q1325.81 67.4314 1333.22 67.4314 Q1337.52 67.4314 1341.53 66.3781 Q1345.58 65.3249 1349.55 63.2184 L1349.55 70.267 Q1345.54 71.9684 1341.32 72.8596 Q1337.11 73.7508 1332.78 73.7508 Q1321.92 73.7508 1315.56 67.4314 Q1309.24 61.1119 1309.24 50.3365 Q1309.24 39.1965 1315.24 32.6746 Q1321.27 26.1121 1331.48 26.1121 Q1340.64 26.1121 1345.94 32.0264 Q1351.29 37.9003 1351.29 48.0275 M1343.84 45.84 Q1343.76 39.7232 1340.39 36.0774 Q1337.07 32.4315 1331.56 32.4315 Q1325.32 32.4315 1321.56 35.9558 Q1317.83 39.4801 1317.26 45.8805 L1343.84 45.84 Z" fill="#000000" fill-rule="nonzero" fill-opacity="1" /><path clip-path="url(#clip670)" d="M1401.24 45.1919 L1401.24 72.576 L1393.78 72.576 L1393.78 45.4349 Q1393.78 38.994 1391.27 35.7938 Q1388.76 32.5936 1383.74 32.5936 Q1377.7 32.5936 1374.22 36.4419 Q1370.73 40.2903 1370.73 46.9338 L1370.73 72.576 L1363.24 72.576 L1363.24 27.2059 L1370.73 27.2059 L1370.73 34.2544 Q1373.41 30.163 1377.01 28.1376 Q1380.66 26.1121 1385.4 26.1121 Q1393.22 26.1121 1397.23 30.9732 Q1401.24 35.7938 1401.24 45.1919 Z" fill="#000000" fill-rule="nonzero" fill-opacity="1" /><path clip-path="url(#clip670)" d="M1423.48 14.324 L1423.48 27.2059 L1438.83 27.2059 L1438.83 32.9987 L1423.48 32.9987 L1423.48 57.6282 Q1423.48 63.1779 1424.98 64.7578 Q1426.52 66.3376 1431.17 66.3376 L1438.83 66.3376 L1438.83 72.576 L1431.17 72.576 Q1422.55 72.576 1419.26 69.3758 Q1415.98 66.1351 1415.98 57.6282 L1415.98 32.9987 L1410.51 32.9987 L1410.51 27.2059 L1415.98 27.2059 L1415.98 14.324 L1423.48 14.324 Z" fill="#000000" fill-rule="nonzero" fill-opacity="1" /><path clip-path="url(#clip670)" d="M1448.63 27.2059 L1456.09 27.2059 L1456.09 72.576 L1448.63 72.576 L1448.63 27.2059 M1448.63 9.54393 L1456.09 9.54393 L1456.09 18.9825 L1448.63 18.9825 L1448.63 9.54393 Z" fill="#000000" fill-rule="nonzero" fill-opacity="1" /><path clip-path="url(#clip670)" d="M1492.3 49.7694 Q1483.27 49.7694 1479.78 51.8354 Q1476.3 53.9013 1476.3 58.8839 Q1476.3 62.8538 1478.89 65.2034 Q1481.53 67.5124 1486.02 67.5124 Q1492.22 67.5124 1495.95 63.1374 Q1499.72 58.7219 1499.72 51.4303 L1499.72 49.7694 L1492.3 49.7694 M1507.17 46.6907 L1507.17 72.576 L1499.72 72.576 L1499.72 65.6895 Q1497.16 69.8214 1493.36 71.8063 Q1489.55 73.7508 1484.04 73.7508 Q1477.07 73.7508 1472.94 69.8619 Q1468.85 65.9325 1468.85 59.3701 Q1468.85 51.7138 1473.95 47.825 Q1479.1 43.9361 1489.26 43.9361 L1499.72 43.9361 L1499.72 43.2069 Q1499.72 38.0623 1496.31 35.2672 Q1492.95 32.4315 1486.83 32.4315 Q1482.94 32.4315 1479.26 33.3632 Q1475.57 34.295 1472.17 36.1584 L1472.17 29.2718 Q1476.26 27.692 1480.11 26.9223 Q1483.96 26.1121 1487.6 26.1121 Q1497.45 26.1121 1502.31 31.2163 Q1507.17 36.3204 1507.17 46.6907 Z" fill="#000000" fill-rule="nonzero" fill-opacity="1" /><path clip-path="url(#clip670)" d="M1522.52 9.54393 L1529.98 9.54393 L1529.98 72.576 L1522.52 72.576 L1522.52 9.54393 Z" fill="#000000" fill-rule="nonzero" fill-opacity="1" /><path clip-path="url(#clip670)" d="M1574.49 28.5427 L1574.49 35.5912 Q1571.34 33.9709 1567.93 33.1607 Q1564.53 32.3505 1560.88 32.3505 Q1555.33 32.3505 1552.54 34.0519 Q1549.78 35.7533 1549.78 39.156 Q1549.78 41.7486 1551.77 43.2475 Q1553.75 44.7058 1559.75 46.0426 L1562.3 46.6097 Q1570.24 48.3111 1573.56 51.4303 Q1576.93 54.509 1576.93 60.0587 Q1576.93 66.3781 1571.9 70.0644 Q1566.92 73.7508 1558.17 73.7508 Q1554.52 73.7508 1550.55 73.0216 Q1546.62 72.3329 1542.25 70.9151 L1542.25 63.2184 Q1546.38 65.3654 1550.39 66.4591 Q1554.4 67.5124 1558.33 67.5124 Q1563.6 67.5124 1566.43 65.73 Q1569.27 63.9071 1569.27 60.6258 Q1569.27 57.5877 1567.2 55.9673 Q1565.18 54.3469 1558.25 52.8481 L1555.66 52.2405 Q1548.73 50.7821 1545.65 47.7845 Q1542.57 44.7463 1542.57 39.4801 Q1542.57 33.0797 1547.11 29.5959 Q1551.65 26.1121 1559.99 26.1121 Q1564.12 26.1121 1567.77 26.7198 Q1571.42 27.3274 1574.49 28.5427 Z" fill="#000000" fill-rule="nonzero" fill-opacity="1" /><path clip-path="url(#clip670)" d="M1632.75 32.4315 Q1626.75 32.4315 1623.27 37.1306 Q1619.78 41.7891 1619.78 49.9314 Q1619.78 58.0738 1623.23 62.7728 Q1626.71 67.4314 1632.75 67.4314 Q1638.7 67.4314 1642.19 62.7323 Q1645.67 58.0333 1645.67 49.9314 Q1645.67 41.8701 1642.19 37.1711 Q1638.7 32.4315 1632.75 32.4315 M1632.75 26.1121 Q1642.47 26.1121 1648.02 32.4315 Q1653.57 38.7509 1653.57 49.9314 Q1653.57 61.0714 1648.02 67.4314 Q1642.47 73.7508 1632.75 73.7508 Q1622.98 73.7508 1617.43 67.4314 Q1611.93 61.0714 1611.93 49.9314 Q1611.93 38.7509 1617.43 32.4315 Q1622.98 26.1121 1632.75 26.1121 Z" fill="#000000" fill-rule="nonzero" fill-opacity="1" /><path clip-path="url(#clip670)" d="M1688.89 9.54393 L1688.89 15.7418 L1681.76 15.7418 Q1677.75 15.7418 1676.17 17.3622 Q1674.63 18.9825 1674.63 23.1955 L1674.63 27.2059 L1686.91 27.2059 L1686.91 32.9987 L1674.63 32.9987 L1674.63 72.576 L1667.14 72.576 L1667.14 32.9987 L1660.01 32.9987 L1660.01 27.2059 L1667.14 27.2059 L1667.14 24.0462 Q1667.14 16.471 1670.66 13.0277 Q1674.19 9.54393 1681.84 9.54393 L1688.89 9.54393 Z" fill="#000000" fill-rule="nonzero" fill-opacity="1" /><path clip-path="url(#clip670)" d="M1767.12 16.7545 L1767.12 25.383 Q1762.98 21.5346 1758.28 19.6307 Q1753.63 17.7268 1748.36 17.7268 Q1737.99 17.7268 1732.48 24.0867 Q1726.97 30.4061 1726.97 42.3968 Q1726.97 54.3469 1732.48 60.7069 Q1737.99 67.0263 1748.36 67.0263 Q1753.63 67.0263 1758.28 65.1223 Q1762.98 63.2184 1767.12 59.3701 L1767.12 67.9175 Q1762.82 70.8341 1758 72.2924 Q1753.22 73.7508 1747.87 73.7508 Q1734.14 73.7508 1726.24 65.3654 Q1718.34 56.9395 1718.34 42.3968 Q1718.34 27.8135 1726.24 19.4281 Q1734.14 11.0023 1747.87 11.0023 Q1753.3 11.0023 1758.08 12.4606 Q1762.9 13.8784 1767.12 16.7545 Z" fill="#000000" fill-rule="nonzero" fill-opacity="1" /><path clip-path="url(#clip670)" d="M1800.05 49.7694 Q1791.02 49.7694 1787.53 51.8354 Q1784.05 53.9013 1784.05 58.8839 Q1784.05 62.8538 1786.64 65.2034 Q1789.27 67.5124 1793.77 67.5124 Q1799.97 67.5124 1803.7 63.1374 Q1807.46 58.7219 1807.46 51.4303 L1807.46 49.7694 L1800.05 49.7694 M1814.92 46.6907 L1814.92 72.576 L1807.46 72.576 L1807.46 65.6895 Q1804.91 69.8214 1801.1 71.8063 Q1797.29 73.7508 1791.79 73.7508 Q1784.82 73.7508 1780.69 69.8619 Q1776.59 65.9325 1776.59 59.3701 Q1776.59 51.7138 1781.7 47.825 Q1786.84 43.9361 1797.01 43.9361 L1807.46 43.9361 L1807.46 43.2069 Q1807.46 38.0623 1804.06 35.2672 Q1800.7 32.4315 1794.58 32.4315 Q1790.69 32.4315 1787.01 33.3632 Q1783.32 34.295 1779.92 36.1584 L1779.92 29.2718 Q1784.01 27.692 1787.86 26.9223 Q1791.7 26.1121 1795.35 26.1121 Q1805.19 26.1121 1810.06 31.2163 Q1814.92 36.3204 1814.92 46.6907 Z" fill="#000000" fill-rule="nonzero" fill-opacity="1" /><path clip-path="url(#clip670)" d="M1865.15 43.6931 L1865.15 65.8515 L1878.27 65.8515 Q1884.88 65.8515 1888.03 63.1374 Q1891.24 60.3828 1891.24 54.752 Q1891.24 49.0808 1888.03 46.4072 Q1884.88 43.6931 1878.27 43.6931 L1865.15 43.6931 M1865.15 18.8205 L1865.15 37.0496 L1877.26 37.0496 Q1883.25 37.0496 1886.17 34.8216 Q1889.13 32.5531 1889.13 27.935 Q1889.13 23.3575 1886.17 21.089 Q1883.25 18.8205 1877.26 18.8205 L1865.15 18.8205 M1856.96 12.096 L1877.87 12.096 Q1887.22 12.096 1892.29 15.9849 Q1897.35 19.8737 1897.35 27.0438 Q1897.35 32.5936 1894.76 35.8748 Q1892.17 39.156 1887.14 39.9662 Q1893.18 41.2625 1896.5 45.3944 Q1899.86 49.4858 1899.86 55.6432 Q1899.86 63.745 1894.35 68.1605 Q1888.85 72.576 1878.68 72.576 L1856.96 72.576 L1856.96 12.096 Z" fill="#000000" fill-rule="nonzero" fill-opacity="1" /><path clip-path="url(#clip670)" d="M1931.14 32.4315 Q1925.14 32.4315 1921.66 37.1306 Q1918.17 41.7891 1918.17 49.9314 Q1918.17 58.0738 1921.62 62.7728 Q1925.1 67.4314 1931.14 67.4314 Q1937.09 67.4314 1940.58 62.7323 Q1944.06 58.0333 1944.06 49.9314 Q1944.06 41.8701 1940.58 37.1711 Q1937.09 32.4315 1931.14 32.4315 M1931.14 26.1121 Q1940.86 26.1121 1946.41 32.4315 Q1951.96 38.7509 1951.96 49.9314 Q1951.96 61.0714 1946.41 67.4314 Q1940.86 73.7508 1931.14 73.7508 Q1921.37 73.7508 1915.82 67.4314 Q1910.31 61.0714 1910.31 49.9314 Q1910.31 38.7509 1915.82 32.4315 Q1921.37 26.1121 1931.14 26.1121 Z" fill="#000000" fill-rule="nonzero" fill-opacity="1" /><path clip-path="url(#clip670)" d="M1990.6 34.1734 Q1989.35 33.4443 1987.85 33.1202 Q1986.39 32.7556 1984.61 32.7556 Q1978.29 32.7556 1974.89 36.8875 Q1971.52 40.9789 1971.52 48.6757 L1971.52 72.576 L1964.03 72.576 L1964.03 27.2059 L1971.52 27.2059 L1971.52 34.2544 Q1973.87 30.1225 1977.64 28.1376 Q1981.41 26.1121 1986.8 26.1121 Q1987.57 26.1121 1988.5 26.2337 Q1989.43 26.3147 1990.56 26.5172 L1990.6 34.1734 Z" fill="#000000" fill-rule="nonzero" fill-opacity="1" /><path clip-path="url(#clip670)" d="M2034.68 45.1919 L2034.68 72.576 L2027.22 72.576 L2027.22 45.4349 Q2027.22 38.994 2024.71 35.7938 Q2022.2 32.5936 2017.18 32.5936 Q2011.14 32.5936 2007.66 36.4419 Q2004.17 40.2903 2004.17 46.9338 L2004.17 72.576 L1996.68 72.576 L1996.68 27.2059 L2004.17 27.2059 L2004.17 34.2544 Q2006.85 30.163 2010.45 28.1376 Q2014.1 26.1121 2018.84 26.1121 Q2026.66 26.1121 2030.67 30.9732 Q2034.68 35.7938 2034.68 45.1919 Z" fill="#000000" fill-rule="nonzero" fill-opacity="1" /><path clip-path="url(#clip670)" d="M2075.92 27.2059 L2083.37 27.2059 L2083.37 72.576 L2075.92 72.576 L2075.92 27.2059 M2075.92 9.54393 L2083.37 9.54393 L2083.37 18.9825 L2075.92 18.9825 L2075.92 9.54393 Z" fill="#000000" fill-rule="nonzero" fill-opacity="1" /><path clip-path="url(#clip670)" d="M2116.55 32.4315 Q2110.55 32.4315 2107.07 37.1306 Q2103.58 41.7891 2103.58 49.9314 Q2103.58 58.0738 2107.03 62.7728 Q2110.51 67.4314 2116.55 67.4314 Q2122.5 67.4314 2125.99 62.7323 Q2129.47 58.0333 2129.47 49.9314 Q2129.47 41.8701 2125.99 37.1711 Q2122.5 32.4315 2116.55 32.4315 M2116.55 26.1121 Q2126.27 26.1121 2131.82 32.4315 Q2137.37 38.7509 2137.37 49.9314 Q2137.37 61.0714 2131.82 67.4314 Q2126.27 73.7508 2116.55 73.7508 Q2106.78 73.7508 2101.23 67.4314 Q2095.72 61.0714 2095.72 49.9314 Q2095.72 38.7509 2101.23 32.4315 Q2106.78 26.1121 2116.55 26.1121 Z" fill="#000000" fill-rule="nonzero" fill-opacity="1" /><path clip-path="url(#clip670)" d="M2187.44 45.1919 L2187.44 72.576 L2179.98 72.576 L2179.98 45.4349 Q2179.98 38.994 2177.47 35.7938 Q2174.96 32.5936 2169.94 32.5936 Q2163.9 32.5936 2160.42 36.4419 Q2156.93 40.2903 2156.93 46.9338 L2156.93 72.576 L2149.44 72.576 L2149.44 27.2059 L2156.93 27.2059 L2156.93 34.2544 Q2159.61 30.163 2163.21 28.1376 Q2166.86 26.1121 2171.6 26.1121 Q2179.42 26.1121 2183.43 30.9732 Q2187.44 35.7938 2187.44 45.1919 Z" fill="#000000" fill-rule="nonzero" fill-opacity="1" /><path clip-path="url(#clip670)" d="M2231.23 28.5427 L2231.23 35.5912 Q2228.07 33.9709 2224.67 33.1607 Q2221.26 32.3505 2217.62 32.3505 Q2212.07 32.3505 2209.27 34.0519 Q2206.52 35.7533 2206.52 39.156 Q2206.52 41.7486 2208.5 43.2475 Q2210.49 44.7058 2216.48 46.0426 L2219.03 46.6097 Q2226.97 48.3111 2230.3 51.4303 Q2233.66 54.509 2233.66 60.0587 Q2233.66 66.3781 2228.63 70.0644 Q2223.65 73.7508 2214.9 73.7508 Q2211.26 73.7508 2207.29 73.0216 Q2203.36 72.3329 2198.98 70.9151 L2198.98 63.2184 Q2203.11 65.3654 2207.12 66.4591 Q2211.14 67.5124 2215.06 67.5124 Q2220.33 67.5124 2223.17 65.73 Q2226 63.9071 2226 60.6258 Q2226 57.5877 2223.94 55.9673 Q2221.91 54.3469 2214.98 52.8481 L2212.39 52.2405 Q2205.46 50.7821 2202.39 47.7845 Q2199.31 44.7463 2199.31 39.4801 Q2199.31 33.0797 2203.84 29.5959 Q2208.38 26.1121 2216.73 26.1121 Q2220.86 26.1121 2224.5 26.7198 Q2228.15 27.3274 2231.23 28.5427 Z" fill="#000000" fill-rule="nonzero" fill-opacity="1" /><polyline clip-path="url(#clip672)" style="stroke:#009af9; stroke-linecap:round; stroke-linejoin:round; stroke-width:4; stroke-opacity:1; fill:none" points="296.199,515.774 319.192,524.648 342.185,533.651 365.177,542.788 388.17,552.065 411.162,561.488 434.155,571.064 457.148,580.801 480.14,590.704 503.133,600.784 526.126,611.047 549.118,621.504 572.111,632.165 595.103,643.038 618.096,654.138 641.089,665.474 664.081,677.061 687.074,688.914 710.066,701.046 733.059,713.477 756.052,726.223 779.044,739.305 802.037,752.745 825.029,766.568 848.022,780.799 871.015,795.469 894.007,810.61 917,826.259 939.993,842.457 962.985,859.249 985.978,876.687 1008.97,894.831 1031.96,913.747 1054.96,933.511 1077.95,954.214 1100.94,975.959 1123.93,998.867 1146.93,1023.08 1169.92,1048.78 1192.91,1076.16 1215.9,1105.49 1238.9,1137.08 1261.89,1171.34 1284.88,1208.79 1307.87,1250.12 1330.87,1296.27 1353.86,1348.58 1376.85,1409.04 1399.84,1480.76 1422.84,1569.09 1445.83,1623.11 1468.82,1624.57 1491.82,1626.02 1514.81,1627.47 1537.8,1628.92 1560.79,1630.35 1583.79,1631.79 1606.78,1633.21 1629.77,1634.64 1652.76,1636.05 1675.76,1637.46 1698.75,1638.87 1721.74,1640.27 1744.73,1641.66 1767.73,1643.05 1790.72,1644.44 1813.71,1645.82 1836.7,1647.19 1859.7,1648.56 1882.69,1649.92 1905.68,1651.28 1928.67,1652.64 1951.67,1653.99 1974.66,1655.33 1997.65,1656.67 2020.65,1658 2043.64,1659.33 2066.63,1660.66 2089.62,1661.98 2112.62,1663.29 2135.61,1664.6 2158.6,1665.91 2181.59,1667.21 2204.59,1668.51 2227.58,1669.8 2250.57,1671.09 2273.56,1672.37 2296.56,1673.65 2319.55,1674.92 2342.54,1676.19 2365.53,1677.46 2388.53,1678.72 2411.52,1679.97 2434.51,1681.23 2457.5,1682.48 2480.5,1683.72 2503.49,1684.96 2526.48,1686.2 2549.48,1687.43 2572.47,1688.65 "/>
<polyline clip-path="url(#clip672)" style="stroke:#e26f46; stroke-linecap:round; stroke-linejoin:round; stroke-width:4; stroke-opacity:1; fill:none" points="296.199,173.254 319.192,176.732 342.185,180.208 365.177,183.683 388.17,187.157 411.162,190.63 434.155,194.102 457.148,197.573 480.14,201.044 503.133,204.514 526.126,207.984 549.118,211.454 572.111,214.923 595.103,218.394 618.096,221.864 641.089,225.335 664.081,228.806 687.074,232.279 710.066,235.752 733.059,239.227 756.052,242.702 779.044,246.18 802.037,249.658 825.029,253.139 848.022,256.621 871.015,260.106 894.007,263.593 917,267.082 939.993,270.573 962.985,274.068 985.978,277.565 1008.97,281.065 1031.96,284.569 1054.96,288.075 1077.95,291.586 1100.94,295.099 1123.93,298.617 1146.93,302.139 1169.92,305.665 1192.91,309.195 1215.9,312.73 1238.9,316.269 1261.89,319.814 1284.88,323.363 1307.87,326.917 1330.87,330.477 1353.86,334.043 1376.85,337.614 1399.84,341.191 1422.84,344.774 1445.83,347.539 1468.82,349.474 1491.82,351.405 1514.81,353.329 1537.8,355.247 1560.79,357.16 1583.79,359.068 1606.78,360.97 1629.77,362.866 1652.76,364.757 1675.76,366.642 1698.75,368.522 1721.74,370.397 1744.73,372.266 1767.73,374.13 1790.72,375.989 1813.71,377.842 1836.7,379.691 1859.7,381.534 1882.69,383.372 1905.68,385.205 1928.67,387.033 1951.67,388.856 1974.66,390.675 1997.65,392.488 2020.65,394.296 2043.64,396.1 2066.63,397.899 2089.62,399.693 2112.62,401.482 2135.61,403.267 2158.6,405.047 2181.59,406.822 2204.59,408.593 2227.58,410.359 2250.57,412.12 2273.56,413.877 2296.56,415.63 2319.55,417.378 2342.54,419.122 2365.53,420.861 2388.53,422.597 2411.52,424.327 2434.51,426.054 2457.5,427.776 2480.5,429.494 2503.49,431.207 2526.48,432.917 2549.48,434.622 2572.47,436.324 "/>
<polyline clip-path="url(#clip672)" style="stroke:#000000; stroke-linecap:round; stroke-linejoin:round; stroke-width:8; stroke-opacity:1; fill:none" points="1434.33,3340.44 1434.33,-1478.53 "/>
<path clip-path="url(#clip670)" d="M308.34 1680.57 L902.747 1680.57 L902.747 1525.05 L308.34 1525.05  Z" fill="#ffffff" fill-rule="evenodd" fill-opacity="1"/>
<polyline clip-path="url(#clip670)" style="stroke:#000000; stroke-linecap:round; stroke-linejoin:round; stroke-width:4; stroke-opacity:1; fill:none" points="308.34,1680.57 902.747,1680.57 902.747,1525.05 308.34,1525.05 308.34,1680.57 "/>
<polyline clip-path="url(#clip670)" style="stroke:#009af9; stroke-linecap:round; stroke-linejoin:round; stroke-width:4; stroke-opacity:1; fill:none" points="335.149,1576.89 496.005,1576.89 "/>
<path clip-path="url(#clip670)" d="M527.49 1577.67 L527.49 1590.33 L534.99 1590.33 Q538.764 1590.33 540.569 1588.78 Q542.398 1587.21 542.398 1583.99 Q542.398 1580.75 540.569 1579.22 Q538.764 1577.67 534.99 1577.67 L527.49 1577.67 M527.49 1563.46 L527.49 1573.87 L534.412 1573.87 Q537.838 1573.87 539.504 1572.6 Q541.194 1571.3 541.194 1568.66 Q541.194 1566.05 539.504 1564.75 Q537.838 1563.46 534.412 1563.46 L527.49 1563.46 M522.815 1559.61 L534.759 1559.61 Q540.106 1559.61 543 1561.84 Q545.893 1564.06 545.893 1568.15 Q545.893 1571.33 544.412 1573.2 Q542.93 1575.08 540.06 1575.54 Q543.509 1576.28 545.407 1578.64 Q547.328 1580.98 547.328 1584.5 Q547.328 1589.13 544.18 1591.65 Q541.032 1594.17 535.222 1594.17 L522.815 1594.17 L522.815 1559.61 Z" fill="#000000" fill-rule="nonzero" fill-opacity="1" /><path clip-path="url(#clip670)" d="M565.199 1571.23 Q561.773 1571.23 559.782 1573.92 Q557.791 1576.58 557.791 1581.23 Q557.791 1585.89 559.759 1588.57 Q561.75 1591.23 565.199 1591.23 Q568.601 1591.23 570.592 1588.55 Q572.583 1585.86 572.583 1581.23 Q572.583 1576.63 570.592 1573.94 Q568.601 1571.23 565.199 1571.23 M565.199 1567.62 Q570.754 1567.62 573.925 1571.23 Q577.097 1574.84 577.097 1581.23 Q577.097 1587.6 573.925 1591.23 Q570.754 1594.84 565.199 1594.84 Q559.62 1594.84 556.449 1591.23 Q553.301 1587.6 553.301 1581.23 Q553.301 1574.84 556.449 1571.23 Q559.62 1567.62 565.199 1567.62 Z" fill="#000000" fill-rule="nonzero" fill-opacity="1" /><path clip-path="url(#clip670)" d="M599.18 1572.23 Q598.462 1571.81 597.606 1571.63 Q596.773 1571.42 595.754 1571.42 Q592.143 1571.42 590.198 1573.78 Q588.277 1576.12 588.277 1580.52 L588.277 1594.17 L583.995 1594.17 L583.995 1568.25 L588.277 1568.25 L588.277 1572.27 Q589.62 1569.91 591.773 1568.78 Q593.925 1567.62 597.004 1567.62 Q597.444 1567.62 597.976 1567.69 Q598.509 1567.74 599.157 1567.85 L599.18 1572.23 Z" fill="#000000" fill-rule="nonzero" fill-opacity="1" /><path clip-path="url(#clip670)" d="M624.365 1578.52 L624.365 1594.17 L620.106 1594.17 L620.106 1578.66 Q620.106 1574.98 618.671 1573.15 Q617.235 1571.33 614.365 1571.33 Q610.916 1571.33 608.925 1573.52 Q606.935 1575.72 606.935 1579.52 L606.935 1594.17 L602.652 1594.17 L602.652 1568.25 L606.935 1568.25 L606.935 1572.27 Q608.462 1569.94 610.522 1568.78 Q612.606 1567.62 615.314 1567.62 Q619.782 1567.62 622.073 1570.4 Q624.365 1573.15 624.365 1578.52 Z" fill="#000000" fill-rule="nonzero" fill-opacity="1" /><path clip-path="url(#clip670)" d="M658.161 1558.2 Q655.059 1563.52 653.555 1568.73 Q652.05 1573.94 652.05 1579.29 Q652.05 1584.64 653.555 1589.89 Q655.082 1595.12 658.161 1600.42 L654.457 1600.42 Q650.985 1594.98 649.249 1589.73 Q647.536 1584.47 647.536 1579.29 Q647.536 1574.13 649.249 1568.9 Q650.962 1563.66 654.457 1558.2 L658.161 1558.2 Z" fill="#000000" fill-rule="nonzero" fill-opacity="1" /><path clip-path="url(#clip670)" d="M666.425 1558.15 L670.684 1558.15 L670.684 1594.17 L666.425 1594.17 L666.425 1558.15 Z" fill="#000000" fill-rule="nonzero" fill-opacity="1" /><path clip-path="url(#clip670)" d="M689.642 1571.23 Q686.216 1571.23 684.226 1573.92 Q682.235 1576.58 682.235 1581.23 Q682.235 1585.89 684.203 1588.57 Q686.193 1591.23 689.642 1591.23 Q693.045 1591.23 695.036 1588.55 Q697.027 1585.86 697.027 1581.23 Q697.027 1576.63 695.036 1573.94 Q693.045 1571.23 689.642 1571.23 M689.642 1567.62 Q695.198 1567.62 698.369 1571.23 Q701.54 1574.84 701.54 1581.23 Q701.54 1587.6 698.369 1591.23 Q695.198 1594.84 689.642 1594.84 Q684.064 1594.84 680.892 1591.23 Q677.744 1587.6 677.744 1581.23 Q677.744 1574.84 680.892 1571.23 Q684.064 1567.62 689.642 1567.62 Z" fill="#000000" fill-rule="nonzero" fill-opacity="1" /><path clip-path="url(#clip670)" d="M727.258 1569.24 L727.258 1573.22 Q725.452 1572.23 723.624 1571.74 Q721.818 1571.23 719.966 1571.23 Q715.823 1571.23 713.531 1573.87 Q711.24 1576.49 711.24 1581.23 Q711.24 1585.98 713.531 1588.62 Q715.823 1591.23 719.966 1591.23 Q721.818 1591.23 723.624 1590.75 Q725.452 1590.24 727.258 1589.24 L727.258 1593.18 Q725.476 1594.01 723.554 1594.43 Q721.656 1594.84 719.503 1594.84 Q713.647 1594.84 710.198 1591.16 Q706.749 1587.48 706.749 1581.23 Q706.749 1574.89 710.221 1571.26 Q713.716 1567.62 719.781 1567.62 Q721.749 1567.62 723.624 1568.04 Q725.499 1568.43 727.258 1569.24 Z" fill="#000000" fill-rule="nonzero" fill-opacity="1" /><path clip-path="url(#clip670)" d="M746.448 1581.14 Q741.286 1581.14 739.295 1582.32 Q737.304 1583.5 737.304 1586.35 Q737.304 1588.62 738.786 1589.96 Q740.29 1591.28 742.86 1591.28 Q746.401 1591.28 748.531 1588.78 Q750.684 1586.26 750.684 1582.09 L750.684 1581.14 L746.448 1581.14 M754.943 1579.38 L754.943 1594.17 L750.684 1594.17 L750.684 1590.24 Q749.225 1592.6 747.05 1593.73 Q744.874 1594.84 741.725 1594.84 Q737.744 1594.84 735.383 1592.62 Q733.045 1590.38 733.045 1586.63 Q733.045 1582.25 735.962 1580.03 Q738.901 1577.81 744.712 1577.81 L750.684 1577.81 L750.684 1577.39 Q750.684 1574.45 748.739 1572.85 Q746.818 1571.23 743.323 1571.23 Q741.1 1571.23 738.994 1571.77 Q736.888 1572.3 734.943 1573.36 L734.943 1569.43 Q737.281 1568.52 739.48 1568.09 Q741.679 1567.62 743.762 1567.62 Q749.387 1567.62 752.165 1570.54 Q754.943 1573.46 754.943 1579.38 Z" fill="#000000" fill-rule="nonzero" fill-opacity="1" /><path clip-path="url(#clip670)" d="M763.716 1558.15 L767.975 1558.15 L767.975 1594.17 L763.716 1594.17 L763.716 1558.15 Z" fill="#000000" fill-rule="nonzero" fill-opacity="1" /><path clip-path="url(#clip670)" d="M776.216 1558.2 L779.92 1558.2 Q783.392 1563.66 785.105 1568.9 Q786.841 1574.13 786.841 1579.29 Q786.841 1584.47 785.105 1589.73 Q783.392 1594.98 779.92 1600.42 L776.216 1600.42 Q779.295 1595.12 780.799 1589.89 Q782.327 1584.64 782.327 1579.29 Q782.327 1573.94 780.799 1568.73 Q779.295 1563.52 776.216 1558.2 Z" fill="#000000" fill-rule="nonzero" fill-opacity="1" /><polyline clip-path="url(#clip670)" style="stroke:#e26f46; stroke-linecap:round; stroke-linejoin:round; stroke-width:4; stroke-opacity:1; fill:none" points="335.149,1628.73 496.005,1628.73 "/>
<path clip-path="url(#clip670)" d="M527.49 1629.51 L527.49 1642.17 L534.99 1642.17 Q538.764 1642.17 540.569 1640.62 Q542.398 1639.05 542.398 1635.83 Q542.398 1632.59 540.569 1631.06 Q538.764 1629.51 534.99 1629.51 L527.49 1629.51 M527.49 1615.3 L527.49 1625.71 L534.412 1625.71 Q537.838 1625.71 539.504 1624.44 Q541.194 1623.14 541.194 1620.5 Q541.194 1617.89 539.504 1616.59 Q537.838 1615.3 534.412 1615.3 L527.49 1615.3 M522.815 1611.45 L534.759 1611.45 Q540.106 1611.45 543 1613.68 Q545.893 1615.9 545.893 1619.99 Q545.893 1623.17 544.412 1625.04 Q542.93 1626.92 540.06 1627.38 Q543.509 1628.12 545.407 1630.48 Q547.328 1632.82 547.328 1636.34 Q547.328 1640.97 544.18 1643.49 Q541.032 1646.01 535.222 1646.01 L522.815 1646.01 L522.815 1611.45 Z" fill="#000000" fill-rule="nonzero" fill-opacity="1" /><path clip-path="url(#clip670)" d="M565.199 1623.07 Q561.773 1623.07 559.782 1625.76 Q557.791 1628.42 557.791 1633.07 Q557.791 1637.73 559.759 1640.41 Q561.75 1643.07 565.199 1643.07 Q568.601 1643.07 570.592 1640.39 Q572.583 1637.7 572.583 1633.07 Q572.583 1628.47 570.592 1625.78 Q568.601 1623.07 565.199 1623.07 M565.199 1619.46 Q570.754 1619.46 573.925 1623.07 Q577.097 1626.68 577.097 1633.07 Q577.097 1639.44 573.925 1643.07 Q570.754 1646.68 565.199 1646.68 Q559.62 1646.68 556.449 1643.07 Q553.301 1639.44 553.301 1633.07 Q553.301 1626.68 556.449 1623.07 Q559.62 1619.46 565.199 1619.46 Z" fill="#000000" fill-rule="nonzero" fill-opacity="1" /><path clip-path="url(#clip670)" d="M599.18 1624.07 Q598.462 1623.65 597.606 1623.47 Q596.773 1623.26 595.754 1623.26 Q592.143 1623.26 590.198 1625.62 Q588.277 1627.96 588.277 1632.36 L588.277 1646.01 L583.995 1646.01 L583.995 1620.09 L588.277 1620.09 L588.277 1624.11 Q589.62 1621.75 591.773 1620.62 Q593.925 1619.46 597.004 1619.46 Q597.444 1619.46 597.976 1619.53 Q598.509 1619.58 599.157 1619.69 L599.18 1624.07 Z" fill="#000000" fill-rule="nonzero" fill-opacity="1" /><path clip-path="url(#clip670)" d="M624.365 1630.36 L624.365 1646.01 L620.106 1646.01 L620.106 1630.5 Q620.106 1626.82 618.671 1624.99 Q617.235 1623.17 614.365 1623.17 Q610.916 1623.17 608.925 1625.36 Q606.935 1627.56 606.935 1631.36 L606.935 1646.01 L602.652 1646.01 L602.652 1620.09 L606.935 1620.09 L606.935 1624.11 Q608.462 1621.78 610.522 1620.62 Q612.606 1619.46 615.314 1619.46 Q619.782 1619.46 622.073 1622.24 Q624.365 1624.99 624.365 1630.36 Z" fill="#000000" fill-rule="nonzero" fill-opacity="1" /><path clip-path="url(#clip670)" d="M658.161 1610.04 Q655.059 1615.36 653.555 1620.57 Q652.05 1625.78 652.05 1631.13 Q652.05 1636.48 653.555 1641.73 Q655.082 1646.96 658.161 1652.26 L654.457 1652.26 Q650.985 1646.82 649.249 1641.57 Q647.536 1636.31 647.536 1631.13 Q647.536 1625.97 649.249 1620.74 Q650.962 1615.5 654.457 1610.04 L658.161 1610.04 Z" fill="#000000" fill-rule="nonzero" fill-opacity="1" /><path clip-path="url(#clip670)" d="M687.976 1630.36 L687.976 1646.01 L683.717 1646.01 L683.717 1630.5 Q683.717 1626.82 682.281 1624.99 Q680.846 1623.17 677.976 1623.17 Q674.527 1623.17 672.536 1625.36 Q670.545 1627.56 670.545 1631.36 L670.545 1646.01 L666.263 1646.01 L666.263 1620.09 L670.545 1620.09 L670.545 1624.11 Q672.073 1621.78 674.133 1620.62 Q676.217 1619.46 678.925 1619.46 Q683.392 1619.46 685.684 1622.24 Q687.976 1624.99 687.976 1630.36 Z" fill="#000000" fill-rule="nonzero" fill-opacity="1" /><path clip-path="url(#clip670)" d="M706.517 1623.07 Q703.091 1623.07 701.101 1625.76 Q699.11 1628.42 699.11 1633.07 Q699.11 1637.73 701.078 1640.41 Q703.068 1643.07 706.517 1643.07 Q709.92 1643.07 711.911 1640.39 Q713.902 1637.7 713.902 1633.07 Q713.902 1628.47 711.911 1625.78 Q709.92 1623.07 706.517 1623.07 M706.517 1619.46 Q712.073 1619.46 715.244 1623.07 Q718.415 1626.68 718.415 1633.07 Q718.415 1639.44 715.244 1643.07 Q712.073 1646.68 706.517 1646.68 Q700.939 1646.68 697.767 1643.07 Q694.619 1639.44 694.619 1633.07 Q694.619 1626.68 697.767 1623.07 Q700.939 1619.46 706.517 1619.46 Z" fill="#000000" fill-rule="nonzero" fill-opacity="1" /><path clip-path="url(#clip670)" d="M747.026 1630.36 L747.026 1646.01 L742.767 1646.01 L742.767 1630.5 Q742.767 1626.82 741.332 1624.99 Q739.897 1623.17 737.026 1623.17 Q733.577 1623.17 731.587 1625.36 Q729.596 1627.56 729.596 1631.36 L729.596 1646.01 L725.314 1646.01 L725.314 1620.09 L729.596 1620.09 L729.596 1624.11 Q731.124 1621.78 733.184 1620.62 Q735.267 1619.46 737.975 1619.46 Q742.443 1619.46 744.735 1622.24 Q747.026 1624.99 747.026 1630.36 Z" fill="#000000" fill-rule="nonzero" fill-opacity="1" /><path clip-path="url(#clip670)" d="M755.522 1609.99 L759.781 1609.99 L759.781 1646.01 L755.522 1646.01 L755.522 1609.99 Z" fill="#000000" fill-rule="nonzero" fill-opacity="1" /><path clip-path="url(#clip670)" d="M778.739 1623.07 Q775.313 1623.07 773.323 1625.76 Q771.332 1628.42 771.332 1633.07 Q771.332 1637.73 773.299 1640.41 Q775.29 1643.07 778.739 1643.07 Q782.142 1643.07 784.133 1640.39 Q786.123 1637.7 786.123 1633.07 Q786.123 1628.47 784.133 1625.78 Q782.142 1623.07 778.739 1623.07 M778.739 1619.46 Q784.295 1619.46 787.466 1623.07 Q790.637 1626.68 790.637 1633.07 Q790.637 1639.44 787.466 1643.07 Q784.295 1646.68 778.739 1646.68 Q773.16 1646.68 769.989 1643.07 Q766.841 1639.44 766.841 1633.07 Q766.841 1626.68 769.989 1623.07 Q773.16 1619.46 778.739 1619.46 Z" fill="#000000" fill-rule="nonzero" fill-opacity="1" /><path clip-path="url(#clip670)" d="M816.355 1621.08 L816.355 1625.06 Q814.549 1624.07 812.72 1623.58 Q810.915 1623.07 809.063 1623.07 Q804.92 1623.07 802.628 1625.71 Q800.336 1628.33 800.336 1633.07 Q800.336 1637.82 802.628 1640.46 Q804.92 1643.07 809.063 1643.07 Q810.915 1643.07 812.72 1642.59 Q814.549 1642.08 816.355 1641.08 L816.355 1645.02 Q814.572 1645.85 812.651 1646.27 Q810.753 1646.68 808.6 1646.68 Q802.744 1646.68 799.295 1643 Q795.846 1639.32 795.846 1633.07 Q795.846 1626.73 799.318 1623.1 Q802.813 1619.46 808.878 1619.46 Q810.845 1619.46 812.72 1619.88 Q814.595 1620.27 816.355 1621.08 Z" fill="#000000" fill-rule="nonzero" fill-opacity="1" /><path clip-path="url(#clip670)" d="M835.544 1632.98 Q830.382 1632.98 828.392 1634.16 Q826.401 1635.34 826.401 1638.19 Q826.401 1640.46 827.882 1641.8 Q829.387 1643.12 831.956 1643.12 Q835.498 1643.12 837.628 1640.62 Q839.78 1638.1 839.78 1633.93 L839.78 1632.98 L835.544 1632.98 M844.04 1631.22 L844.04 1646.01 L839.78 1646.01 L839.78 1642.08 Q838.322 1644.44 836.146 1645.57 Q833.97 1646.68 830.822 1646.68 Q826.841 1646.68 824.48 1644.46 Q822.142 1642.22 822.142 1638.47 Q822.142 1634.09 825.058 1631.87 Q827.998 1629.65 833.808 1629.65 L839.78 1629.65 L839.78 1629.23 Q839.78 1626.29 837.836 1624.69 Q835.915 1623.07 832.419 1623.07 Q830.197 1623.07 828.091 1623.61 Q825.984 1624.14 824.04 1625.2 L824.04 1621.27 Q826.378 1620.36 828.577 1619.93 Q830.776 1619.46 832.859 1619.46 Q838.484 1619.46 841.262 1622.38 Q844.04 1625.3 844.04 1631.22 Z" fill="#000000" fill-rule="nonzero" fill-opacity="1" /><path clip-path="url(#clip670)" d="M852.813 1609.99 L857.072 1609.99 L857.072 1646.01 L852.813 1646.01 L852.813 1609.99 Z" fill="#000000" fill-rule="nonzero" fill-opacity="1" /><path clip-path="url(#clip670)" d="M865.313 1610.04 L869.016 1610.04 Q872.489 1615.5 874.202 1620.74 Q875.938 1625.97 875.938 1631.13 Q875.938 1636.31 874.202 1641.57 Q872.489 1646.82 869.016 1652.26 L865.313 1652.26 Q868.391 1646.96 869.896 1641.73 Q871.424 1636.48 871.424 1631.13 Q871.424 1625.78 869.896 1620.57 Q868.391 1615.36 865.313 1610.04 Z" fill="#000000" fill-rule="nonzero" fill-opacity="1" /></svg>
